<svg width="319" height="97" viewBox="0 0 319 97" fill="none" xmlns="http://www.w3.org/2000/svg">
<path d="M6.78331 12.9974C10.0619 18.7678 9.87348 22.6887 5.84118 30.7155C1.73351 38.8532 1.7712 38.5943 5.16285 34.8213C12.926 26.0918 24.4953 21.3571 36.5922 21.9489C49.2544 22.5778 58.5626 28.6071 58.6379 36.3009C58.7133 40.5177 56.6406 40.9616 50.0081 38.2613C36.14 32.5649 33.7281 31.8621 27.2086 31.5662C21.2544 31.3443 18.1265 31.9361 13.4159 34.2295C7.42396 37.1147 3.12786 41.7384 0.942126 47.6567C0.15074 49.6911 0 50.8008 0 53.834C0.0376851 65.8186 9.0821 78.3581 21.2544 83.2777C28.603 86.2369 36.856 86.8287 44.3553 84.8313C46.4657 84.2764 53.5881 81.2433 53.5881 80.9104C53.5881 80.8364 52.1938 81.1693 50.498 81.6872C46.2396 82.9078 38.3257 83.2407 33.4643 82.353C26.4549 81.0583 20.3499 78.0252 16.5814 74.0303C12.323 69.5176 12.3607 64.8939 16.7698 60.751L18.0888 59.4934L18.8802 60.6401C19.9354 62.0827 23.6662 63.8582 27.2086 64.598C33.5397 65.9296 41.1521 64.598 41.4536 62.1197C41.5666 61.047 40.7375 60.2332 36.7052 57.385C32.183 54.2039 29.0929 49.5802 28.8291 45.5113C28.4899 40.8136 31.2032 38.1134 36.253 38.1134C40.8883 38.1134 45.0336 39.8519 53.0982 45.1784C59.6554 49.5062 62.6702 51.0598 64.5545 51.0598C67.1924 51.0598 69.3028 49.3952 69.9435 46.9169C70.2449 45.6593 69.3028 41.4425 68.0215 38.3723C65.7227 32.7499 61.2759 27.0165 56.4899 23.4655C49.6312 18.3609 39.6824 15.6607 31.354 16.6594C29.5828 16.8813 27.3593 17.1403 26.3795 17.2882C24.7591 17.4732 24.4199 17.3622 22.611 16.1046C18.8048 13.4043 14.4711 11.9617 8.0646 11.2589L5.65276 11L6.78331 12.9974Z" fill="white"/>
<path d="M68.3608 59.7893C67.6824 60.3442 65.6474 61.3429 63.8762 62.0087C60.2208 63.4143 59.354 64.0431 58.638 65.7447C58.1104 66.9283 58.1104 66.9283 56.9422 66.3365C56.0001 65.8556 55.2464 65.8186 53.0606 66.0776C51.5909 66.2625 49.066 66.4105 47.4456 66.4105C45.1844 66.4105 44.5815 66.5214 44.7322 66.8913C44.8453 67.1872 44.9207 67.5571 44.9207 67.7051C44.9207 68.2599 47.2194 70.6643 48.2746 71.2191C48.8022 71.478 50.1212 71.811 51.1387 71.9589C53.6636 72.3288 56.0754 73.3645 56.603 74.3632C57.0552 75.214 56.9799 77.3224 56.4146 78.617C55.887 79.8007 59.8439 76.3607 62.1804 73.6234C64.4792 70.9232 66.778 67.2242 67.8332 64.524C68.5492 62.7485 69.8305 58.8276 69.6797 58.8276C69.6421 58.8276 69.0391 59.2715 68.3608 59.7893Z" fill="white"/>
<path d="M88.5065 74.576C83.5145 74.576 79.9145 74.048 77.7065 72.992C75.4985 71.888 74.0825 70.112 73.4585 67.664C72.8825 65.168 72.5945 61.16 72.5945 55.64C72.5945 50.12 72.8825 46.136 73.4585 43.688C74.0825 41.192 75.4985 39.416 77.7065 38.36C79.9145 37.256 83.5145 36.704 88.5065 36.704C93.5465 36.704 97.1465 37.256 99.3065 38.36C101.514 39.416 102.93 41.192 103.554 43.688C104.178 46.136 104.49 50.12 104.49 55.64C104.49 61.16 104.178 65.168 103.554 67.664C102.93 70.112 101.514 71.888 99.3065 72.992C97.1465 74.048 93.5465 74.576 88.5065 74.576ZM88.5065 65.36C89.8505 65.36 90.7625 65.192 91.2425 64.856C91.7225 64.472 92.0105 63.68 92.1065 62.48C92.2505 61.28 92.3225 59 92.3225 55.64C92.3225 52.28 92.2505 50 92.1065 48.8C92.0105 47.6 91.7225 46.832 91.2425 46.496C90.7625 46.112 89.8505 45.92 88.5065 45.92C87.2105 45.92 86.3225 46.112 85.8425 46.496C85.3625 46.832 85.0505 47.6 84.9065 48.8C84.8105 50 84.7625 52.28 84.7625 55.64C84.7625 59 84.8105 61.28 84.9065 62.48C85.0505 63.68 85.3625 64.472 85.8425 64.856C86.3225 65.192 87.2105 65.36 88.5065 65.36ZM118.155 74.576C115.563 74.576 113.523 74.048 112.035 72.992C110.595 71.888 109.515 69.992 108.795 67.304C108.123 64.568 107.787 60.704 107.787 55.712C107.787 50.816 108.123 47 108.795 44.264C109.467 41.528 110.547 39.584 112.035 38.432C113.523 37.28 115.563 36.704 118.155 36.704C120.171 36.704 121.875 37.04 123.267 37.712C124.707 38.336 125.859 39.464 126.723 41.096H127.371V20.504H139.539V74H127.875L127.587 69.752H126.867C126.051 71.576 124.899 72.848 123.411 73.568C121.923 74.24 120.171 74.576 118.155 74.576ZM123.699 64.568C124.755 64.568 125.499 64.448 125.931 64.208C126.411 63.92 126.747 63.32 126.939 62.408C127.227 61.16 127.371 58.904 127.371 55.64C127.371 52.664 127.275 50.576 127.083 49.376C126.891 48.272 126.555 47.552 126.075 47.216C125.595 46.88 124.803 46.712 123.699 46.712C122.403 46.712 121.515 46.88 121.035 47.216C120.603 47.504 120.315 48.224 120.171 49.376C120.027 50.48 119.955 52.568 119.955 55.64C119.955 58.712 120.027 60.824 120.171 61.976C120.315 63.08 120.603 63.8 121.035 64.136C121.515 64.424 122.403 64.568 123.699 64.568ZM163.478 74.576C157.334 74.576 152.942 73.856 150.302 72.416C147.71 70.928 146.102 68.576 145.478 65.36C144.854 62.144 144.542 56.768 144.542 49.232C144.542 41.696 144.854 36.32 145.478 33.104C146.102 29.888 147.71 27.56 150.302 26.12C152.942 24.632 157.334 23.888 163.478 23.888C169.622 23.888 173.99 24.632 176.582 26.12C179.222 27.56 180.854 29.888 181.478 33.104C182.102 36.32 182.414 41.696 182.414 49.232C182.414 56.768 182.102 62.144 181.478 65.36C180.854 68.576 179.222 70.928 176.582 72.416C173.99 73.856 169.622 74.576 163.478 74.576ZM163.478 64.28C165.494 64.28 166.838 64.04 167.51 63.56C168.23 63.08 168.686 61.928 168.878 60.104C169.07 58.232 169.166 54.608 169.166 49.232C169.166 43.856 169.07 40.256 168.878 38.432C168.686 36.56 168.23 35.384 167.51 34.904C166.838 34.424 165.494 34.184 163.478 34.184C161.462 34.184 160.094 34.424 159.374 34.904C158.702 35.384 158.27 36.56 158.078 38.432C157.886 40.256 157.79 43.856 157.79 49.232C157.79 54.608 157.886 58.232 158.078 60.104C158.27 61.928 158.702 63.08 159.374 63.56C160.094 64.04 161.462 64.28 163.478 64.28ZM211.167 73.352C207.903 74.168 204.519 74.576 201.015 74.576C196.599 74.576 193.335 73.88 191.223 72.488C189.159 71.048 187.839 69.056 187.263 66.512C186.687 63.968 186.399 60.344 186.399 55.64C186.399 50.984 186.687 47.384 187.263 44.84C187.887 42.248 189.231 40.256 191.295 38.864C193.407 37.424 196.647 36.704 201.015 36.704C204.567 36.704 207.879 37.088 210.951 37.856V46.352C208.647 46.064 206.463 45.92 204.399 45.92C202.575 45.92 201.279 46.136 200.511 46.568C199.791 47 199.311 47.864 199.071 49.16C198.831 50.408 198.711 52.568 198.711 55.64C198.711 58.76 198.831 60.968 199.071 62.264C199.311 63.512 199.791 64.352 200.511 64.784C201.279 65.168 202.599 65.36 204.471 65.36C206.871 65.36 209.103 65.216 211.167 64.928V73.352ZM245.094 58.52H226.374C226.374 60.872 226.518 62.48 226.806 63.344C227.094 64.208 227.718 64.76 228.678 65C229.638 65.24 231.438 65.36 234.078 65.36C235.95 65.36 239.238 65.216 243.942 64.928V73.352C242.598 73.688 240.726 73.976 238.326 74.216C235.926 74.456 233.55 74.576 231.198 74.576C225.966 74.576 222.15 73.952 219.75 72.704C217.398 71.456 215.91 69.608 215.286 67.16C214.662 64.664 214.35 60.848 214.35 55.712C214.35 50.624 214.662 46.832 215.286 44.336C215.91 41.792 217.326 39.896 219.534 38.648C221.742 37.352 225.27 36.704 230.118 36.704C234.966 36.704 238.422 37.304 240.486 38.504C242.598 39.656 243.894 41.432 244.374 43.832C244.854 46.232 245.094 50.192 245.094 55.712V58.52ZM230.118 45.344C228.966 45.344 228.126 45.488 227.598 45.776C227.118 46.064 226.782 46.688 226.59 47.648C226.446 48.56 226.374 50.12 226.374 52.328H233.79C233.79 50.072 233.694 48.488 233.502 47.576C233.358 46.616 233.046 46.016 232.566 45.776C232.086 45.488 231.27 45.344 230.118 45.344ZM257.557 74.576C254.341 74.576 251.989 73.688 250.501 71.912C249.013 70.088 248.269 67.256 248.269 63.416C248.269 60.536 248.581 58.304 249.205 56.72C249.829 55.136 250.909 53.984 252.445 53.264C253.981 52.544 256.165 52.184 258.997 52.184C260.917 52.184 263.557 52.28 266.917 52.472V51.032C266.917 49.352 266.749 48.176 266.413 47.504C266.077 46.832 265.453 46.4 264.541 46.208C263.629 46.016 261.997 45.92 259.645 45.92C256.861 45.92 253.693 46.064 250.141 46.352V37.856C254.557 37.088 258.973 36.704 263.389 36.704C267.997 36.704 271.405 37.232 273.613 38.288C275.869 39.296 277.333 40.856 278.005 42.968C278.725 45.032 279.085 48.008 279.085 51.896V74H267.349L267.061 69.824H266.413C265.405 71.648 264.157 72.896 262.669 73.568C261.181 74.24 259.477 74.576 257.557 74.576ZM263.101 65.72C263.965 65.72 264.637 65.624 265.117 65.432C265.645 65.192 266.053 64.808 266.341 64.28C266.725 63.56 266.917 62.216 266.917 60.248V58.448H262.957C261.997 58.448 261.277 58.544 260.797 58.736C260.365 58.88 260.077 59.216 259.933 59.744C259.789 60.272 259.717 61.112 259.717 62.264C259.717 63.656 259.909 64.592 260.293 65.072C260.677 65.504 261.613 65.72 263.101 65.72ZM303.273 54.416C303.273 51.776 303.201 49.976 303.057 49.016C302.961 48.056 302.697 47.456 302.265 47.216C301.881 46.928 301.113 46.784 299.961 46.784C298.809 46.784 297.993 46.976 297.513 47.36C297.081 47.696 296.793 48.392 296.649 49.448C296.553 50.456 296.505 52.28 296.505 54.92V74H284.337V37.28H296.001L296.289 41.528H296.865C298.545 38.312 301.569 36.704 305.937 36.704C308.625 36.704 310.641 37.208 311.985 38.216C313.377 39.224 314.289 40.688 314.721 42.608C315.201 44.48 315.441 47.096 315.441 50.456V74H303.273V54.416Z" fill="white"/>
</svg>
