<svg width="208" height="252" viewBox="0 0 208 252" fill="none" xmlns="http://www.w3.org/2000/svg">
<mask id="mask0_143_8302" style="mask-type:luminance" maskUnits="userSpaceOnUse" x="4" y="124" width="70" height="36">
<path d="M4.08331 124.39H73.1927V159.827H4.08331V124.39Z" fill="white"/>
</mask>
<g mask="url(#mask0_143_8302)">
<path d="M73.1354 140.041C67.8958 139.994 59.7344 143.009 52.4166 146.16C47.7604 148.16 43.4479 150.213 40.4427 151.567C37.0989 153.077 33.7135 154.577 30.2239 155.879C24.5989 157.973 18.7083 159.551 12.2656 159.796C7.07289 159.999 5.08852 159.275 4.40102 158.499C4.21352 158.285 4.12498 158.067 4.09893 157.864C4.01039 157.317 4.34893 156.869 4.34893 156.869C8.74998 151.999 16.0104 147.327 23.7031 143.301C31.3489 139.301 39.4219 135.942 45.5469 133.666C49.8802 132.062 53.2344 130.994 54.776 130.629C60.526 129.254 65.3437 124.9 65.6406 124.629H65.6458C65.651 124.619 65.651 124.619 65.651 124.619C65.651 124.619 65.6562 124.629 65.6562 124.655C65.7552 125.327 67.1094 134.119 73.1354 140.041Z" fill="#232323"/>
</g>
<path d="M135.886 108.541C135.886 108.541 132.948 113.041 132.406 105.046C132.406 105.046 131.875 87.098 138.901 88.7959C145.932 90.4938 135.886 108.541 135.886 108.541ZM75.5887 105.046C75.0418 113.041 72.1095 108.541 72.1095 108.541C72.1095 108.541 62.0574 90.4938 69.0939 88.7959C76.1251 87.098 75.5887 105.046 75.5887 105.046ZM113.068 52.8011H113.057C111.818 51.3167 111.307 49.6501 111.307 49.6501C111.073 48.6813 110.865 47.7074 110.688 46.7334C109.115 38.3115 109.401 29.7959 110.302 22.7178C111.396 14.1657 113.391 7.72818 114.083 6.1136C115.755 2.22297 114.74 1.31672 114.74 1.31672C112.386 -1.16244 110.708 1.16047 110.708 1.16047C104.86 7.69172 101.521 15.3636 99.6147 22.598C96.8022 33.2959 97.1251 43.0407 97.0991 46.7542C97.0991 47.0928 97.0991 47.3792 97.0835 47.6136C96.9949 49.9001 96.0939 51.5667 95.0314 52.7594H95.0262C49.1095 68.8792 65.0887 122.812 65.6408 124.629H65.646C65.6512 124.66 65.6564 124.676 65.6564 124.676V124.655C67.0887 103.384 79.396 120.947 86.3126 134.473C93.2293 147.994 103.995 148.426 103.995 148.426C103.995 148.426 114.766 147.994 121.688 134.473C128.599 120.952 140.901 103.395 142.339 124.64V124.645C142.344 124.65 142.344 124.671 142.344 124.676C142.344 124.676 142.344 124.66 142.354 124.629C142.906 122.812 158.86 68.9574 113.068 52.8011Z" fill="#232323"/>
<path d="M135.886 108.541C135.886 108.541 132.948 113.041 132.406 105.046C132.406 105.046 131.875 87.098 138.901 88.7959C145.932 90.4938 135.886 108.541 135.886 108.541Z" fill="white"/>
<path d="M75.5888 105.046C75.0419 113.041 72.1096 108.541 72.1096 108.541C72.1096 108.541 62.0575 90.4938 69.094 88.7959C76.1252 87.098 75.5888 105.046 75.5888 105.046Z" fill="white"/>
<mask id="mask1_143_8302" style="mask-type:luminance" maskUnits="userSpaceOnUse" x="134" y="124" width="70" height="36">
<path d="M134.802 124.39H203.917V159.827H134.802V124.39Z" fill="white"/>
</mask>
<g mask="url(#mask1_143_8302)">
<path d="M203.901 157.853V157.858C203.87 158.067 203.781 158.291 203.583 158.509C202.891 159.285 200.901 159.999 195.74 159.796C189.292 159.551 183.396 157.973 177.771 155.879C174.281 154.577 170.896 153.077 167.552 151.567C164.552 150.213 160.234 148.16 155.578 146.155C148.26 143.009 140.104 139.994 134.865 140.041C140.937 134.072 142.26 125.192 142.339 124.645V124.64C142.344 124.624 142.344 124.619 142.344 124.619C142.344 124.619 142.344 124.619 142.354 124.629C142.651 124.9 147.469 129.254 153.214 130.629C154.76 130.994 158.115 132.062 162.443 133.666C168.568 135.942 176.646 139.301 184.286 143.296C191.984 147.327 199.245 151.999 203.646 156.869C203.646 156.869 203.984 157.312 203.901 157.853Z" fill="#232323"/>
</g>
<mask id="mask2_143_8302" style="mask-type:luminance" maskUnits="userSpaceOnUse" x="65" y="114" width="78" height="46">
<path d="M65.4217 114.733H142.573V159.827H65.4217V114.733Z" fill="white"/>
</mask>
<g mask="url(#mask2_143_8302)">
<path d="M142.338 124.64V124.645C142.26 125.192 140.937 134.072 134.864 140.041C134.864 140.041 119.443 159.827 103.995 159.827C88.5571 159.827 73.1352 140.041 73.1352 140.041C67.1092 134.119 65.755 125.327 65.6561 124.655C67.0884 103.384 79.3957 120.947 86.3123 134.473C93.229 147.994 103.995 148.426 103.995 148.426C103.995 148.426 114.765 147.994 121.687 134.473C128.599 120.952 140.901 103.395 142.338 124.64Z" fill="white"/>
</g>
<path d="M61.8353 195.827L59.1513 184.255H59.0633L56.3793 195.827H53.5193L50.1973 180.691H52.5073L55.0153 192.967H55.1253L57.9193 180.691H60.3833L63.1993 192.967H63.3313L65.7513 180.691H68.0173L64.6953 195.827H61.8353ZM78.3432 190.921H71.8752C71.8752 191.948 71.9265 192.674 72.0292 193.099C72.1465 193.524 72.4032 193.818 72.7992 193.979C73.2099 194.14 73.8919 194.221 74.8452 194.221C75.6372 194.221 76.6785 194.148 77.9692 194.001V195.673C77.5585 195.776 77.0159 195.856 76.3412 195.915C75.6665 195.974 75.0139 196.003 74.3832 196.003C72.9899 196.003 71.9632 195.827 71.3032 195.475C70.6578 195.108 70.2325 194.536 70.0272 193.759C69.8218 192.982 69.7192 191.808 69.7192 190.239C69.7192 188.699 69.8145 187.54 70.0052 186.763C70.1959 185.971 70.6065 185.384 71.2372 185.003C71.8678 184.622 72.8579 184.431 74.2072 184.431C75.5125 184.431 76.4512 184.622 77.0232 185.003C77.6099 185.37 77.9765 185.934 78.1232 186.697C78.2699 187.445 78.3432 188.618 78.3432 190.217V190.921ZM74.1632 186.213C73.4592 186.213 72.9532 186.294 72.6452 186.455C72.3519 186.616 72.1538 186.91 72.0512 187.335C71.9485 187.76 71.8899 188.457 71.8752 189.425H76.2752V189.315C76.2752 188.376 76.2165 187.694 76.0992 187.269C75.9819 186.844 75.7765 186.565 75.4832 186.433C75.2045 186.286 74.7645 186.213 74.1632 186.213ZM81.8878 195.827V179.481H84.0218V195.827H81.8878ZM87.9455 195.827V179.481H90.0795V195.827H87.9455ZM100.559 195.695C100.207 195.783 99.7672 195.856 99.2392 195.915C98.7259 195.974 98.2346 196.003 97.7652 196.003C96.5186 196.003 95.5946 195.805 94.9932 195.409C94.4066 195.013 94.0252 194.426 93.8492 193.649C93.6879 192.872 93.6072 191.728 93.6072 190.217C93.6072 188.736 93.7026 187.599 93.8932 186.807C94.0986 186 94.4946 185.406 95.0812 185.025C95.6679 184.629 96.5479 184.431 97.7212 184.431C98.1906 184.431 98.6819 184.46 99.1952 184.519C99.7086 184.578 100.134 184.651 100.471 184.739V186.433C99.7379 186.301 98.9972 186.235 98.2492 186.235C97.5012 186.235 96.9512 186.338 96.5992 186.543C96.2619 186.748 96.0346 187.122 95.9172 187.665C95.8146 188.193 95.7632 189.044 95.7632 190.217C95.7632 191.405 95.8219 192.27 95.9392 192.813C96.0566 193.356 96.2839 193.722 96.6212 193.913C96.9732 194.104 97.5306 194.199 98.2932 194.199C99.0852 194.199 99.8406 194.133 100.559 194.001V195.695ZM107.912 196.003C106.504 196.003 105.492 195.842 104.876 195.519C104.275 195.196 103.886 194.661 103.71 193.913C103.534 193.15 103.446 191.918 103.446 190.217C103.446 188.516 103.534 187.284 103.71 186.521C103.886 185.758 104.275 185.223 104.876 184.915C105.492 184.592 106.504 184.431 107.912 184.431C109.32 184.431 110.325 184.592 110.926 184.915C111.542 185.223 111.938 185.758 112.114 186.521C112.29 187.284 112.378 188.516 112.378 190.217C112.378 191.918 112.29 193.15 112.114 193.913C111.938 194.661 111.542 195.196 110.926 195.519C110.325 195.842 109.32 196.003 107.912 196.003ZM107.912 194.199C108.704 194.199 109.254 194.111 109.562 193.935C109.87 193.759 110.061 193.422 110.134 192.923C110.208 192.424 110.244 191.522 110.244 190.217C110.244 188.897 110.208 187.995 110.134 187.511C110.061 187.012 109.87 186.675 109.562 186.499C109.254 186.323 108.704 186.235 107.912 186.235C107.135 186.235 106.592 186.323 106.284 186.499C105.976 186.675 105.786 187.012 105.712 187.511C105.639 187.995 105.602 188.897 105.602 190.217C105.602 191.522 105.639 192.424 105.712 192.923C105.786 193.422 105.976 193.759 106.284 193.935C106.592 194.111 107.135 194.199 107.912 194.199ZM127.994 189.579C127.994 188.552 127.95 187.826 127.862 187.401C127.788 186.961 127.627 186.675 127.378 186.543C127.143 186.411 126.732 186.345 126.146 186.345C125.53 186.345 125.075 186.47 124.782 186.719C124.488 186.968 124.298 187.342 124.21 187.841C124.122 188.34 124.078 189.066 124.078 190.019V195.827H121.944V189.579C121.944 188.538 121.9 187.804 121.812 187.379C121.738 186.954 121.584 186.675 121.35 186.543C121.115 186.411 120.704 186.345 120.118 186.345C119.502 186.345 119.047 186.477 118.754 186.741C118.46 186.99 118.27 187.364 118.182 187.863C118.094 188.362 118.05 189.08 118.05 190.019V195.827H115.916V184.607H117.852L117.94 186.103H118.094C118.314 185.56 118.658 185.15 119.128 184.871C119.612 184.578 120.257 184.431 121.064 184.431C121.914 184.431 122.552 184.563 122.978 184.827C123.403 185.091 123.704 185.516 123.88 186.103H124.012C124.481 184.988 125.493 184.431 127.048 184.431C127.898 184.431 128.544 184.585 128.984 184.893C129.438 185.186 129.739 185.641 129.886 186.257C130.047 186.858 130.128 187.687 130.128 188.743V195.827H127.994V189.579ZM140.555 195.827V186.411H138.641V184.607H140.555V181.351H142.689V184.607H144.955V186.411H142.689V195.827H140.555ZM151.801 196.003C150.393 196.003 149.381 195.842 148.765 195.519C148.164 195.196 147.775 194.661 147.599 193.913C147.423 193.15 147.335 191.918 147.335 190.217C147.335 188.516 147.423 187.284 147.599 186.521C147.775 185.758 148.164 185.223 148.765 184.915C149.381 184.592 150.393 184.431 151.801 184.431C153.209 184.431 154.214 184.592 154.815 184.915C155.431 185.223 155.827 185.758 156.003 186.521C156.179 187.284 156.267 188.516 156.267 190.217C156.267 191.918 156.179 193.15 156.003 193.913C155.827 194.661 155.431 195.196 154.815 195.519C154.214 195.842 153.209 196.003 151.801 196.003ZM151.801 194.199C152.593 194.199 153.143 194.111 153.451 193.935C153.759 193.759 153.95 193.422 154.023 192.923C154.097 192.424 154.133 191.522 154.133 190.217C154.133 188.897 154.097 187.995 154.023 187.511C153.95 187.012 153.759 186.675 153.451 186.499C153.143 186.323 152.593 186.235 151.801 186.235C151.024 186.235 150.481 186.323 150.173 186.499C149.865 186.675 149.675 187.012 149.601 187.511C149.528 187.995 149.491 188.897 149.491 190.217C149.491 191.522 149.528 192.424 149.601 192.923C149.675 193.422 149.865 193.759 150.173 193.935C150.481 194.111 151.024 194.199 151.801 194.199ZM116.338 230.827L115.194 226.999H109.826L108.704 230.827H106.416L111.036 215.691H114.05L118.67 230.827H116.338ZM112.554 218.001H112.444L110.376 225.063H114.622L112.554 218.001ZM121.459 219.607H123.395L123.483 221.103H123.637C123.886 220.458 124.275 220.018 124.803 219.783C125.331 219.548 125.954 219.431 126.673 219.431C127.597 219.431 128.308 219.6 128.807 219.937C129.32 220.274 129.687 220.854 129.907 221.675C130.127 222.496 130.237 223.67 130.237 225.195C130.237 226.72 130.127 227.901 129.907 228.737C129.701 229.558 129.349 230.145 128.851 230.497C128.352 230.834 127.648 231.003 126.739 231.003C125.976 231.003 125.345 230.893 124.847 230.673C124.363 230.438 123.989 230.05 123.725 229.507H123.593V235.139H121.459V219.607ZM125.837 229.089C126.541 229.089 127.039 229.008 127.333 228.847C127.641 228.686 127.846 228.348 127.949 227.835C128.051 227.307 128.103 226.434 128.103 225.217C128.103 224 128.051 223.134 127.949 222.621C127.846 222.093 127.641 221.748 127.333 221.587C127.039 221.426 126.541 221.345 125.837 221.345C125.279 221.345 124.839 221.433 124.517 221.609C124.209 221.785 123.989 222.078 123.857 222.489C123.739 222.797 123.666 223.156 123.637 223.567C123.607 223.978 123.593 224.528 123.593 225.217C123.593 226.449 123.666 227.314 123.813 227.813C123.959 228.268 124.187 228.598 124.495 228.803C124.817 228.994 125.265 229.089 125.837 229.089ZM133.768 230.827V214.481H135.902V230.827H133.768ZM139.782 216.659V214.481H142.004V216.659H139.782ZM139.826 230.827V219.607H141.96V230.827H139.826ZM152.44 230.695C152.088 230.783 151.648 230.856 151.12 230.915C150.606 230.974 150.115 231.003 149.646 231.003C148.399 231.003 147.475 230.805 146.874 230.409C146.287 230.013 145.906 229.426 145.73 228.649C145.568 227.872 145.488 226.728 145.488 225.217C145.488 223.736 145.583 222.599 145.774 221.807C145.979 221 146.375 220.406 146.962 220.025C147.548 219.629 148.428 219.431 149.602 219.431C150.071 219.431 150.562 219.46 151.076 219.519C151.589 219.578 152.014 219.651 152.352 219.739V221.433C151.618 221.301 150.878 221.235 150.13 221.235C149.382 221.235 148.832 221.338 148.48 221.543C148.142 221.748 147.915 222.122 147.798 222.665C147.695 223.193 147.644 224.044 147.644 225.217C147.644 226.405 147.702 227.27 147.82 227.813C147.937 228.356 148.164 228.722 148.502 228.913C148.854 229.104 149.411 229.199 150.174 229.199C150.966 229.199 151.721 229.133 152.44 229.001V230.695ZM158.253 231.003C157.167 231.003 156.368 230.754 155.855 230.255C155.356 229.756 155.107 228.906 155.107 227.703C155.107 226.838 155.202 226.163 155.393 225.679C155.583 225.195 155.906 224.843 156.361 224.623C156.815 224.403 157.453 224.293 158.275 224.293C159.023 224.293 160.101 224.322 161.509 224.381V223.787C161.509 222.966 161.443 222.386 161.311 222.049C161.179 221.712 160.929 221.492 160.563 221.389C160.196 221.286 159.58 221.235 158.715 221.235C158.304 221.235 157.791 221.257 157.175 221.301C156.559 221.345 156.082 221.396 155.745 221.455V219.739C156.845 219.534 158.062 219.431 159.397 219.431C160.614 219.431 161.523 219.57 162.125 219.849C162.726 220.128 163.129 220.575 163.335 221.191C163.54 221.792 163.643 222.672 163.643 223.831V230.827H161.707L161.619 229.375H161.487C161.208 230.02 160.783 230.453 160.211 230.673C159.653 230.893 159.001 231.003 158.253 231.003ZM159.155 229.221C159.668 229.221 160.086 229.162 160.409 229.045C160.731 228.928 160.981 228.708 161.157 228.385C161.391 227.916 161.509 227.226 161.509 226.317V225.789H158.803C158.348 225.789 158.011 225.833 157.791 225.921C157.571 225.994 157.417 226.156 157.329 226.405C157.241 226.64 157.197 227.014 157.197 227.527C157.197 228.011 157.241 228.37 157.329 228.605C157.431 228.84 157.615 229.001 157.879 229.089C158.157 229.177 158.583 229.221 159.155 229.221ZM168.31 230.827V221.411H166.396V219.607H168.31V216.351H170.444V219.607H172.71V221.411H170.444V230.827H168.31ZM175.55 216.659V214.481H177.772V216.659H175.55ZM175.594 230.827V219.607H177.728V230.827H175.594ZM185.722 231.003C184.314 231.003 183.302 230.842 182.686 230.519C182.084 230.196 181.696 229.661 181.52 228.913C181.344 228.15 181.256 226.918 181.256 225.217C181.256 223.516 181.344 222.284 181.52 221.521C181.696 220.758 182.084 220.223 182.686 219.915C183.302 219.592 184.314 219.431 185.722 219.431C187.13 219.431 188.134 219.592 188.736 219.915C189.352 220.223 189.748 220.758 189.924 221.521C190.1 222.284 190.188 223.516 190.188 225.217C190.188 226.918 190.1 228.15 189.924 228.913C189.748 229.661 189.352 230.196 188.736 230.519C188.134 230.842 187.13 231.003 185.722 231.003ZM185.722 229.199C186.514 229.199 187.064 229.111 187.372 228.935C187.68 228.759 187.87 228.422 187.944 227.923C188.017 227.424 188.054 226.522 188.054 225.217C188.054 223.897 188.017 222.995 187.944 222.511C187.87 222.012 187.68 221.675 187.372 221.499C187.064 221.323 186.514 221.235 185.722 221.235C184.944 221.235 184.402 221.323 184.094 221.499C183.786 221.675 183.595 222.012 183.522 222.511C183.448 222.995 183.412 223.897 183.412 225.217C183.412 226.522 183.448 227.424 183.522 227.923C183.595 228.422 183.786 228.759 184.094 228.935C184.402 229.111 184.944 229.199 185.722 229.199ZM200.149 224.579C200.149 223.552 200.098 222.826 199.995 222.401C199.907 221.961 199.731 221.675 199.467 221.543C199.203 221.411 198.748 221.345 198.103 221.345C197.428 221.345 196.93 221.477 196.607 221.741C196.284 222.005 196.079 222.386 195.991 222.885C195.903 223.384 195.859 224.095 195.859 225.019V230.827H193.725V219.607H195.661L195.749 221.103H195.903C196.138 220.56 196.504 220.15 197.003 219.871C197.502 219.578 198.176 219.431 199.027 219.431C199.951 219.431 200.64 219.585 201.095 219.893C201.564 220.186 201.88 220.634 202.041 221.235C202.202 221.836 202.283 222.672 202.283 223.743V230.827H200.149V224.579Z" fill="#F1F1F1"/>
<path d="M14.2008 230.629C13.7901 230.732 13.2695 230.82 12.6388 230.893C12.0081 230.966 11.4141 231.003 10.8568 231.003C9.19948 231.003 7.97481 230.776 7.18281 230.321C6.40548 229.852 5.88481 229.089 5.62081 228.033C5.37148 226.977 5.24681 225.386 5.24681 223.259C5.24681 221.162 5.37881 219.585 5.64281 218.529C5.90681 217.458 6.42748 216.688 7.20481 216.219C7.99681 215.75 9.21415 215.515 10.8568 215.515C11.4288 215.515 12.0155 215.552 12.6168 215.625C13.2328 215.698 13.7388 215.794 14.1348 215.911V218.551C12.8881 218.419 12.0595 218.353 11.6488 218.353C10.6515 218.353 9.96215 218.456 9.58081 218.661C9.21415 218.852 8.97948 219.255 8.87681 219.871C8.77415 220.472 8.72281 221.602 8.72281 223.259C8.72281 224.916 8.77415 226.053 8.87681 226.669C8.97948 227.27 9.21415 227.674 9.58081 227.879C9.96215 228.07 10.6515 228.165 11.6488 228.165C12.4995 228.165 13.3501 228.099 14.2008 227.967V230.629ZM21.466 231.003C19.9846 231.003 18.914 230.842 18.254 230.519C17.6086 230.196 17.198 229.661 17.022 228.913C16.846 228.15 16.758 226.918 16.758 225.217C16.758 223.516 16.846 222.291 17.022 221.543C17.198 220.78 17.6086 220.238 18.254 219.915C18.914 219.592 19.9846 219.431 21.466 219.431C22.9473 219.431 24.0106 219.592 24.656 219.915C25.3013 220.238 25.712 220.78 25.888 221.543C26.0786 222.291 26.174 223.516 26.174 225.217C26.174 226.904 26.0786 228.128 25.888 228.891C25.712 229.639 25.3013 230.182 24.656 230.519C24.0106 230.842 22.9473 231.003 21.466 231.003ZM21.466 228.473C21.994 228.473 22.3533 228.407 22.544 228.275C22.7346 228.143 22.852 227.879 22.896 227.483C22.9546 227.087 22.984 226.332 22.984 225.217C22.984 224.102 22.9546 223.347 22.896 222.951C22.852 222.54 22.7346 222.276 22.544 222.159C22.3533 222.027 21.994 221.961 21.466 221.961C20.938 221.961 20.5713 222.027 20.366 222.159C20.1753 222.276 20.058 222.533 20.014 222.929C19.97 223.325 19.948 224.088 19.948 225.217C19.948 226.346 19.97 227.109 20.014 227.505C20.058 227.886 20.1753 228.143 20.366 228.275C20.5713 228.407 20.938 228.473 21.466 228.473ZM32.0664 231.003C31.245 231.003 30.5997 230.834 30.1304 230.497C29.661 230.16 29.3164 229.58 29.0964 228.759C28.891 227.938 28.7884 226.764 28.7884 225.239C28.7884 223.743 28.891 222.577 29.0964 221.741C29.3017 220.905 29.6317 220.311 30.0864 219.959C30.5557 219.607 31.201 219.431 32.0224 219.431C32.6824 219.431 33.2324 219.534 33.6724 219.739C34.127 219.944 34.4864 220.296 34.7504 220.795H34.9264V214.481H38.1164V230.827H35.1024L35.0144 229.485H34.8164C34.5817 230.057 34.2224 230.453 33.7384 230.673C33.2544 230.893 32.697 231.003 32.0664 231.003ZM33.4744 228.275C33.8557 228.275 34.1417 228.224 34.3324 228.121C34.523 228.018 34.6624 227.82 34.7504 227.527C34.8237 227.278 34.8677 226.977 34.8824 226.625C34.9117 226.273 34.9264 225.804 34.9264 225.217C34.9264 224.146 34.875 223.435 34.7724 223.083C34.699 222.716 34.5597 222.474 34.3544 222.357C34.1637 222.225 33.8704 222.159 33.4744 222.159C32.9757 222.159 32.631 222.218 32.4404 222.335C32.2497 222.452 32.125 222.709 32.0664 223.105C32.0077 223.501 31.9784 224.205 31.9784 225.217C31.9784 226.229 32.0077 226.933 32.0664 227.329C32.125 227.725 32.2497 227.982 32.4404 228.099C32.631 228.216 32.9757 228.275 33.4744 228.275ZM46.9071 231.003C45.0737 231.003 43.7611 230.783 42.9691 230.343C42.1917 229.888 41.7004 229.17 41.4951 228.187C41.3044 227.19 41.2091 225.547 41.2091 223.259C41.2091 220.971 41.3044 219.336 41.4951 218.353C41.7004 217.356 42.1917 216.637 42.9691 216.197C43.7611 215.742 45.0737 215.515 46.9071 215.515C48.7551 215.515 50.0677 215.742 50.8451 216.197C51.6371 216.637 52.1284 217.348 52.3191 218.331C52.5097 219.314 52.6051 220.956 52.6051 223.259C52.6051 225.562 52.5097 227.204 52.3191 228.187C52.1284 229.17 51.6371 229.888 50.8451 230.343C50.0677 230.783 48.7551 231.003 46.9071 231.003ZM46.9071 228.165C47.6991 228.165 48.2271 228.084 48.4911 227.923C48.7697 227.762 48.9457 227.38 49.0191 226.779C49.0924 226.178 49.1291 225.004 49.1291 223.259C49.1291 221.514 49.0924 220.34 49.0191 219.739C48.9457 219.138 48.7697 218.756 48.4911 218.595C48.2271 218.434 47.6991 218.353 46.9071 218.353C46.1151 218.353 45.5797 218.434 45.3011 218.595C45.0371 218.756 44.8684 219.138 44.7951 219.739C44.7217 220.34 44.6851 221.514 44.6851 223.259C44.6851 225.004 44.7217 226.178 44.7951 226.779C44.8684 227.38 45.0371 227.762 45.3011 227.923C45.5797 228.084 46.1151 228.165 46.9071 228.165ZM62.6878 230.651C61.7785 230.886 60.7885 231.003 59.7178 231.003C58.4271 231.003 57.4738 230.798 56.8578 230.387C56.2418 229.962 55.8458 229.36 55.6698 228.583C55.4938 227.791 55.4058 226.669 55.4058 225.217C55.4058 223.78 55.5011 222.665 55.6918 221.873C55.8825 221.081 56.2785 220.48 56.8798 220.069C57.4958 219.644 58.4345 219.431 59.6958 219.431C60.7958 219.431 61.7711 219.541 62.6218 219.761V222.115C61.9618 222.012 61.2871 221.961 60.5978 221.961C59.9818 221.961 59.5418 222.042 59.2778 222.203C59.0138 222.35 58.8378 222.636 58.7498 223.061C58.6618 223.486 58.6178 224.205 58.6178 225.217C58.6178 226.244 58.6618 226.97 58.7498 227.395C58.8378 227.82 59.0065 228.106 59.2558 228.253C59.5198 228.4 59.9671 228.473 60.5978 228.473C61.3605 228.473 62.0571 228.422 62.6878 228.319V230.651ZM74.2878 226.097H68.3698C68.3698 226.889 68.4138 227.439 68.5018 227.747C68.5898 228.04 68.7951 228.238 69.1178 228.341C69.4551 228.444 70.0418 228.495 70.8778 228.495C71.5085 228.495 72.5278 228.436 73.9358 228.319V230.651C73.4958 230.754 72.9165 230.834 72.1978 230.893C71.4938 230.966 70.8045 231.003 70.1298 231.003C68.6191 231.003 67.5118 230.812 66.8078 230.431C66.1185 230.05 65.6785 229.478 65.4878 228.715C65.2971 227.952 65.2018 226.794 65.2018 225.239C65.2018 223.714 65.2971 222.562 65.4878 221.785C65.6785 221.008 66.1038 220.421 66.7638 220.025C67.4238 219.629 68.4651 219.431 69.8878 219.431C71.2958 219.431 72.3078 219.622 72.9238 220.003C73.5398 220.37 73.9211 220.927 74.0678 221.675C74.2145 222.423 74.2878 223.611 74.2878 225.239V226.097ZM69.8438 221.873C69.3891 221.873 69.0591 221.924 68.8538 222.027C68.6631 222.13 68.5311 222.342 68.4578 222.665C68.3991 222.973 68.3698 223.494 68.3698 224.227H71.2738C71.2738 223.479 71.2371 222.951 71.1638 222.643C71.0905 222.32 70.9585 222.115 70.7678 222.027C70.5771 221.924 70.2691 221.873 69.8438 221.873ZM79.6809 231.003C78.6689 231.003 77.9282 230.739 77.4589 230.211C77.0042 229.668 76.7769 228.803 76.7769 227.615C76.7769 226.75 76.8722 226.068 77.0629 225.569C77.2536 225.07 77.5762 224.711 78.0309 224.491C78.5002 224.271 79.1602 224.161 80.0109 224.161C80.6416 224.161 81.5289 224.19 82.6729 224.249V223.787C82.6729 223.186 82.6142 222.768 82.4969 222.533C82.3942 222.284 82.1889 222.13 81.8809 222.071C81.5729 221.998 81.0376 221.961 80.2749 221.961C79.2336 221.961 78.2729 222.012 77.3929 222.115V219.783C78.6396 219.548 79.9376 219.431 81.2869 219.431C82.6069 219.431 83.5896 219.585 84.2349 219.893C84.8949 220.201 85.3276 220.67 85.5329 221.301C85.7529 221.917 85.8629 222.819 85.8629 224.007V230.827H82.8269L82.7389 229.507H82.5629C82.2696 230.079 81.8736 230.475 81.3749 230.695C80.8909 230.9 80.3262 231.003 79.6809 231.003ZM81.1549 228.517C81.4922 228.517 81.7562 228.48 81.9469 228.407C82.1522 228.334 82.3136 228.202 82.4309 228.011C82.5922 227.718 82.6729 227.219 82.6729 226.515V226.031H80.9789C80.6416 226.031 80.3922 226.06 80.2309 226.119C80.0842 226.178 79.9816 226.302 79.9229 226.493C79.8642 226.669 79.8349 226.948 79.8349 227.329C79.8349 227.666 79.8642 227.916 79.9229 228.077C79.9816 228.238 80.0989 228.356 80.2749 228.429C80.4656 228.488 80.7589 228.517 81.1549 228.517ZM95.0814 224.821C95.0814 223.926 95.0521 223.31 94.9934 222.973C94.9494 222.621 94.8394 222.401 94.6634 222.313C94.5021 222.21 94.2014 222.159 93.7614 222.159C93.3067 222.159 92.9767 222.24 92.7714 222.401C92.5807 222.548 92.4561 222.812 92.3974 223.193C92.3387 223.56 92.3094 224.168 92.3094 225.019V230.827H89.1194V219.607H92.1554L92.2434 220.949H92.4194C92.8887 219.937 93.8421 219.431 95.2794 219.431C96.1301 219.431 96.7681 219.585 97.1934 219.893C97.6187 220.186 97.9047 220.626 98.0514 221.213C98.1981 221.8 98.2714 222.606 98.2714 223.633V230.827H95.0814V224.821Z" fill="white"/>
</svg>
