<svg width="249" height="255" viewBox="0 0 249 255" fill="none" xmlns="http://www.w3.org/2000/svg">
<mask id="mask0_232_12719" style="mask-type:luminance" maskUnits="userSpaceOnUse" x="45" y="0" width="188" height="188">
<path d="M45.65 0.466675H232.4V187.217H45.65V0.466675Z" fill="white"/>
</mask>
<g mask="url(#mask0_232_12719)">
<path d="M222.827 36.9437C220.512 38.8402 217.797 40.2723 214.912 41.0445C211.261 42.0221 207.455 41.8119 203.721 41.8461C201.874 41.8608 200.031 41.9439 198.204 42.2176C196.892 42.418 195.138 42.633 194.304 43.8207C192.847 40.9468 191.702 37.6573 193.446 34.6416C195.172 31.6699 198.496 30.3013 201.688 29.5779C208.122 28.1263 214.8 28.3218 221.253 26.9777C224.65 26.2689 227.965 25.0959 230.86 23.1506C230.031 28.5515 227.034 33.493 222.827 36.9437ZM195.108 53.9725C196.039 61.1673 196.381 68.4549 195.932 75.7033C195.494 82.8736 194.26 90.0048 192.043 96.8427C189.693 104.096 186.116 110.748 181.875 117.053C181.047 118.29 180.194 119.517 179.316 120.729C179.117 118.476 179.048 116.213 179.229 113.96C179.37 112.215 179.755 110.582 180.208 108.901C180.545 107.654 180.52 106.164 179.809 105.049C179.273 104.209 178.405 103.656 177.45 103.402C175.271 102.816 172.985 103.524 171.133 104.692C168.793 106.173 166.927 108.26 165.362 110.528C163.754 112.85 162.325 115.397 161.17 117.977C160.551 119.375 160.049 120.817 159.864 122.337C159.684 123.808 159.801 125.309 160.04 126.765C160.21 127.85 160.493 128.916 160.717 129.996C160.888 130.817 161.034 131.692 160.858 132.528C160.6 133.725 159.859 134.581 158.806 135.158C157.49 135.876 156.316 136.565 155.395 137.792C153.601 140.182 153.304 143.301 153.606 146.189C153.611 146.233 153.62 146.277 153.635 146.316C153.382 146.487 153.133 146.653 152.88 146.82C140.948 154.669 126.681 159.342 112.337 158.54C110.534 158.443 108.735 158.252 106.951 157.973C106.152 157.846 105.786 159.063 106.61 159.225C115.491 160.955 123.85 165.08 130.659 171.073C132.394 172.602 134.032 174.25 135.547 175.999C136.269 176.835 136.966 177.691 137.629 178.57C138.369 179.562 139.193 180.623 139.515 181.835C140.27 184.685 137.205 185.306 135.089 185.56C132.75 185.848 130.381 185.912 128.027 185.75C122.324 185.364 116.378 183.639 111.606 180.379C106.386 176.811 102.462 171.263 100.932 165.119C100.513 163.443 100.001 161.908 98.9382 160.515C98.1194 159.45 97.1202 158.56 95.9943 157.832C95.1072 157.255 94.1665 156.781 93.1868 156.39C93.1965 150.989 92.1632 145.202 88.3225 141.179C86.3192 139.087 83.6677 138.051 81.3623 136.375C79.8416 135.27 78.5451 133.867 77.4387 132.347C76.4931 131.057 75.7327 129.59 74.6507 128.403C73.4956 127.122 71.853 126.668 70.1812 127.063C68.5874 127.44 67.1836 128.432 65.9602 129.542C65.3559 126.003 63.9716 122.616 61.8075 119.737C59.546 116.726 56.5435 114.321 53.1317 112.747C52.0448 112.244 50.9237 111.819 49.7735 111.486C49.6613 111.354 49.5151 111.257 49.3933 111.115C49.3543 111.066 49.2958 111.09 49.2617 111.105C49.286 111.09 49.3202 111.061 49.3787 111.002C49.7637 110.626 50.4607 110.416 50.953 110.235C53.6045 109.262 56.4607 108.779 59.2486 108.392C66.009 107.464 72.7693 107.474 79.5297 108.27C88.4931 109.326 97.9439 110.944 106.561 107.293C110.319 105.694 113.414 103.128 115.754 99.7754C118.093 96.4126 119.629 92.5709 121.257 88.8318C123.104 84.5892 125.131 80.508 128.558 77.3065C131.663 74.3983 135.796 72.3601 140.027 73.3914C137.063 78.9292 135.84 85.4495 136.849 91.6715C137.297 94.4331 138.647 96.7792 141.323 97.8203C143.746 98.7636 146.519 98.5388 149.019 98.0549C158.309 96.2611 167.009 91.2218 173.658 84.5061C175.432 82.7172 176.753 80.8941 177.986 78.6506C180.73 73.6554 182.514 68.0932 183.133 62.4136C183.732 56.9345 183.162 51.1963 180.701 46.2108C179.443 43.6692 177.684 41.3769 175.451 39.6271C173.443 38.0532 171.138 36.9877 168.886 35.8293C166.283 34.495 163.866 32.9211 161.858 30.7608C159.635 28.3755 157.939 25.5016 156.808 22.4419C154.8 17.0067 154.464 11.1023 154.922 5.36905C154.975 4.67499 155.044 3.98582 155.122 3.29665C157.378 7.19217 160.4 10.7846 164.519 12.6957C167.029 13.859 169.744 14.2842 172.488 14.3331C175.315 14.3869 178.288 13.9763 181.052 14.773C182.451 15.1738 183.674 15.951 184.668 17.0165C185.663 18.0869 186.228 19.4359 187.135 20.565C189.031 22.9208 191.974 22.6911 194.485 21.5718C196.02 20.8876 197.458 19.9491 199.056 19.3968C200.723 18.8249 202.483 18.7125 204.233 18.9031C207.757 19.2942 211.091 20.8045 214.332 22.1633C217.456 23.4732 221.17 24.7098 224.714 24.7C220.424 26.1467 215.76 26.5573 211.266 26.9825C207.83 27.3051 204.345 27.6082 200.977 28.4146C197.677 29.2065 194.387 30.7363 192.506 33.708C191.443 35.3797 191.073 37.3299 191.346 39.2898C191.648 41.4355 192.613 43.4248 193.627 45.3115C193.68 45.4141 193.744 45.4826 193.817 45.5363C193.807 46.5432 194.129 47.6185 194.285 48.5276C194.597 50.3361 194.875 52.1494 195.108 53.9725ZM154.834 145.495C154.678 143.291 154.893 141.008 156.067 139.092C156.789 137.919 157.778 137.157 158.977 136.531C159.971 136.013 160.858 135.441 161.458 134.459C162.472 132.802 162.262 130.974 161.858 129.165C161.312 126.746 160.756 124.238 161.253 121.755C161.814 118.969 163.33 116.384 164.733 113.95C166.044 111.687 167.521 109.487 169.417 107.674C171.04 106.125 173.078 104.668 175.383 104.512C176.285 104.453 177.26 104.546 178.035 105.054C178.975 105.66 179.219 106.804 179.097 107.869C179 108.754 178.629 109.614 178.439 110.484C178.22 111.496 178.074 112.523 177.976 113.554C177.703 116.457 177.859 119.385 178.186 122.278C171.606 131.13 163.871 139.18 154.834 145.495ZM88.5613 168.12C89.6531 173.487 87.2453 179 84.974 183.781C77.2291 179.201 73.3834 169.313 75.1332 160.559C75.6158 158.135 76.5272 155.847 77.853 153.78C79.3883 154.63 81.0601 155.217 82.7855 155.52C83.0731 160.32 87.6206 163.477 88.5613 168.12ZM65.0098 139.566C60.0334 134.351 54.9643 129.023 50.8506 123.08C49.9684 121.804 49.1544 120.485 48.4916 119.077C48.0237 118.08 47.6094 117.044 47.3267 115.973C47.1512 115.313 46.7662 114.067 47.2926 113.461C47.7995 113.192 48.9644 113.153 49.5882 112.782C55.8807 114.658 61.1934 119.346 63.5573 125.553C64.2056 127.259 64.654 129.053 64.8587 130.871C64.9221 131.404 65.5313 131.756 65.9602 131.326C67.8855 129.4 71.3705 126.658 73.7831 129.361C74.8067 130.509 75.528 131.927 76.4395 133.163C77.5069 134.6 78.7011 135.935 80.1097 137.039C82.1909 138.672 84.7352 139.63 86.7043 141.409C88.2396 142.797 89.4094 144.537 90.2136 146.438C91.4711 149.42 91.8708 152.7 91.8952 155.925C89.8822 155.275 87.7522 154.928 85.6466 154.733C85.5443 154.581 85.3737 154.469 85.1397 154.464C82.2738 154.386 79.5199 153.457 77.1609 151.825C73.0423 147.807 68.9773 143.736 65.0098 139.566ZM231.23 21.0831C226.902 25.0421 220.239 23.2141 215.438 21.2297C209.541 18.8005 203.248 15.8679 197.004 18.8689C194.543 20.0518 191.053 22.5592 188.514 20.1691C187.539 19.2502 187.018 17.9012 186.204 16.8454C185.38 15.775 184.356 14.8561 183.162 14.2305C180.91 13.0525 178.332 12.9792 175.851 13.0134C172.819 13.0525 169.778 13.1454 166.844 12.2216C161.443 10.5109 157.812 5.79428 155.297 0.921222C155.058 0.461777 154.2 0.52043 154.118 1.07763C152.592 11.8551 153.372 24.133 161.502 32.2564C163.432 34.187 165.713 35.6485 168.126 36.8948C170.285 38.0092 172.517 39.0112 174.467 40.4873C178.927 43.8696 181.242 49.4172 181.866 54.8768C182.494 60.4048 181.622 66.055 179.828 71.2897C178.917 73.9486 177.752 76.5196 176.338 78.939C175.783 79.8872 175.227 80.8501 174.516 81.6859C169.656 87.3459 163.139 91.8377 156.243 94.565C153.645 95.5964 150.93 96.4273 148.171 96.8965C145.69 97.3217 142.712 97.4635 140.543 95.9629C137.916 94.1545 137.804 90.2492 137.799 87.3605C137.794 84.1249 138.36 80.9039 139.442 77.8539C140.002 76.2801 140.714 74.7698 141.542 73.3181C141.757 72.9418 141.552 72.497 141.157 72.365C133.198 69.711 125.838 76.7884 122.421 83.3135C118.605 90.6109 116.587 99.6629 109.276 104.404C101.253 109.605 91.1884 108.422 82.225 107.302C79.0374 106.907 75.84 106.481 72.6231 106.393C68.9042 106.286 65.1706 106.437 61.4712 106.828C57.9424 107.205 54.3307 107.708 50.9579 108.862C50.0172 109.184 48.3746 109.644 48.0139 110.724C47.9311 110.963 47.9311 111.203 48.0188 111.437C48.0724 111.589 48.1601 111.711 48.2625 111.833C48.087 111.853 47.9067 111.897 47.7458 111.926C47.3218 112.009 46.927 112.132 46.5761 112.386C46.5224 112.415 46.4688 112.454 46.4152 112.503C45.2747 113.656 45.8596 115.69 46.2934 117.029C46.8344 118.71 47.5996 120.343 48.5159 121.853C50.1877 124.625 52.2446 127.166 54.3112 129.644C59.3851 135.715 64.8977 141.424 70.4736 147.03C72.5305 149.097 74.6117 151.145 76.7027 153.179C71.5167 161.326 72.7693 172.563 78.6816 179.998C80.3924 182.143 82.5175 183.937 84.9301 185.247C85.2177 185.398 85.6564 185.335 85.8123 185.012C88.1811 180.056 90.6913 174.509 89.9845 168.863C89.6628 166.312 88.5662 164.142 87.1527 162.03C85.8854 160.144 84.4135 158.208 84.1162 155.911C87.9764 156.155 92.056 156.815 95.346 158.951C96.3501 159.606 97.2664 160.417 97.9878 161.385C99.0552 162.822 99.411 164.445 99.8594 166.141C101.497 172.338 105.728 177.954 111.006 181.532C116.041 184.944 122.309 186.703 128.314 187.065C130.829 187.217 133.369 187.119 135.859 186.757C137.648 186.498 139.876 185.975 140.655 184.118C141.591 181.894 140.022 179.621 138.74 177.92C137.317 176.019 135.767 174.22 134.095 172.539C128.456 166.859 121.53 162.509 113.999 159.885C125.926 160.183 137.819 156.869 148.288 151.106C160.6 144.327 170.86 134.273 179.224 123.036C179.248 123.002 179.273 122.968 179.297 122.938C179.375 122.88 179.433 122.806 179.468 122.709C183.869 116.765 187.929 110.47 190.853 103.651C193.724 96.9747 195.567 89.9022 196.537 82.7026C197.516 75.4345 197.638 68.0736 197.092 60.7665C196.824 57.1447 196.39 53.5326 195.82 49.9402C195.674 49.0359 195.523 48.1317 195.357 47.2275C195.191 46.2939 194.758 44.9645 195.654 44.2704C196.283 43.7865 197.282 43.6839 198.038 43.5519C199.11 43.3613 200.202 43.2635 201.294 43.2098C205.164 43.0045 209.053 43.3466 212.904 42.7748C215.872 42.3398 218.723 41.2498 221.263 39.6515C226.215 36.538 230.036 31.5379 231.601 25.8681C231.991 24.4556 232.225 23.0039 232.327 21.5425C232.371 20.9511 231.61 20.7312 231.23 21.0831Z" fill="white"/>
</g>
<path d="M68.6702 124.717C68.6994 124.678 68.7287 124.639 68.753 124.595C68.8798 124.537 68.9967 124.439 69.0894 124.302C69.2112 124.126 69.2112 123.828 69.0894 123.647C69.0845 123.642 69.0845 123.637 69.0796 123.632C69.0894 123.593 69.104 123.554 69.1137 123.52C69.143 123.432 69.1527 123.344 69.143 123.271C69.6304 123.432 70.0544 123.755 70.3079 124.204C69.9667 124.698 69.2697 124.801 68.6702 124.717ZM71.385 123.481C70.3176 121.536 67.091 121.262 65.8189 123.163C65.4241 123.755 65.3607 124.512 65.9261 125.02C66.2137 125.289 66.6279 125.421 66.9886 125.563C67.4029 125.729 67.827 125.886 68.2754 125.969C69.6694 126.233 71.3022 125.719 71.7067 124.204C71.7993 123.862 71.6287 123.603 71.385 123.481Z" fill="white"/>
<path d="M101.609 126.545C101.288 127.352 100.517 128.002 99.7961 128.437C98.329 129.322 96.5646 129.546 94.8879 129.463C90.6621 129.268 86.8603 126.951 82.654 126.58C81.4891 126.477 80.3144 126.521 79.1495 126.418C78.1503 126.33 76.9854 126.13 76.1958 125.455C75.2551 124.654 74.4022 122.601 75.7815 121.795C75.8303 121.765 75.8741 121.731 75.9131 121.697C79.9781 120.851 84.1601 120.665 88.2835 121.12C90.433 121.355 92.5678 121.78 94.6491 122.366C96.6279 122.924 98.6848 123.579 100.503 124.551C101.288 124.972 101.994 125.578 101.609 126.545ZM98.3387 122.225C96.082 121.364 93.7474 120.714 91.3737 120.274C86.0122 119.287 80.4948 119.36 75.1674 120.529C74.8945 120.592 74.7531 120.768 74.7141 120.973C73.5882 121.951 73.598 123.632 74.2316 124.962C75.1577 126.897 77.1511 127.538 79.1495 127.714C80.3144 127.816 81.4891 127.772 82.654 127.875C83.8969 127.987 85.1154 128.285 86.3095 128.637C88.6052 129.307 90.8522 130.226 93.2258 130.592C95.1608 130.886 97.2274 130.881 99.0893 130.197C100.81 129.561 103.018 128.046 103.018 125.978C103.018 123.696 100.03 122.865 98.3387 122.225Z" fill="white"/>
<path d="M41.2722 82.942C39.8218 81.4455 37.4415 81.4205 35.9614 82.8847C34.4839 84.3513 34.4568 86.7583 35.9072 88.2549C37.3551 89.7489 39.738 89.7764 41.2155 88.3097C42.6955 86.8456 42.7202 84.4361 41.2722 82.942ZM41.8174 82.4008C43.5613 84.2017 43.5317 87.1 41.7508 88.861C39.9698 90.6244 37.1035 90.5945 35.362 88.7961C33.6181 86.9952 33.6477 84.0969 35.4286 82.3334C37.2071 80.57 40.0734 80.5999 41.8174 82.4008Z" fill="white"/>
<path d="M40.4632 83.3236C40.5274 83.3561 40.5718 83.386 40.6063 83.4035C40.6384 83.4234 40.6556 83.4334 40.6556 83.4334C40.6556 83.4334 40.6458 83.4184 40.6236 83.386C40.6014 83.3536 40.5718 83.3062 40.5274 83.2488C40.4386 83.1316 40.2955 82.9719 40.0834 82.8073C40.0316 82.7649 39.9724 82.7275 39.9107 82.6851C39.849 82.6477 39.7849 82.6053 39.7134 82.5704C39.5728 82.4955 39.4124 82.4282 39.2398 82.3783C38.8919 82.276 38.4825 82.2386 38.0656 82.3085C37.6487 82.3783 37.2713 82.5504 36.9778 82.7624C36.8298 82.8672 36.7015 82.9844 36.593 83.0992C36.482 83.2164 36.3907 83.3336 36.3167 83.4459C36.1687 83.6679 36.0873 83.8699 36.0404 84.0071C36.0158 84.0769 36.001 84.1318 35.9911 84.1692C35.9837 84.2066 35.9788 84.2266 35.9788 84.2266C35.9788 84.2266 35.9911 84.2091 36.0158 84.1817C36.0404 84.1517 36.075 84.1093 36.1218 84.057C36.218 83.9522 36.3586 83.8075 36.5461 83.6554C36.6398 83.5781 36.7459 83.5007 36.8619 83.4259C36.9803 83.3536 37.1061 83.2787 37.2442 83.2164C37.518 83.0842 37.8288 82.9819 38.1667 82.9271C38.5047 82.8697 38.8327 82.8622 39.1337 82.8946C39.2866 82.9121 39.4297 82.937 39.5629 82.9695C39.6295 82.9844 39.6936 83.0044 39.7578 83.0218C39.817 83.0418 39.8786 83.0592 39.9354 83.0817C40.1598 83.1615 40.3399 83.2538 40.4632 83.3236Z" fill="white"/>
<path d="M40.875 83.6603C40.7369 83.7975 40.7344 84.0195 40.8701 84.1592C41.0033 84.2964 41.2253 84.2988 41.361 84.1642C41.4991 84.027 41.5016 83.805 41.3659 83.6653C41.2327 83.5281 41.0132 83.5256 40.875 83.6603Z" fill="white"/>
<path d="M30.9985 44.3106C30.4879 43.4201 29.3557 43.1158 28.475 43.6322C27.5944 44.1485 27.2935 45.2933 27.8041 46.1838C28.3147 47.0743 29.4469 47.3786 30.3275 46.8622C31.2106 46.3459 31.5116 45.2011 30.9985 44.3106ZM31.3241 44.121C31.9383 45.1911 31.5782 46.5704 30.5175 47.1915C29.4568 47.8126 28.0952 47.4459 27.481 46.3759C26.8643 45.3033 27.2269 43.9265 28.2876 43.3029C29.3483 42.6818 30.7099 43.0485 31.3241 44.121Z" fill="white"/>
<path d="M30.5692 44.393C30.5938 44.4179 30.6136 44.4379 30.6259 44.4504C30.6407 44.4628 30.6456 44.4703 30.6456 44.4703C30.6456 44.4703 30.6432 44.4603 30.6382 44.4429C30.6308 44.4254 30.6234 44.398 30.6086 44.3655C30.579 44.3007 30.5322 44.2059 30.4483 44.1012C30.4286 44.0737 30.4064 44.0488 30.3817 44.0213C30.357 43.9964 30.3299 43.969 30.3003 43.9415C30.2435 43.8891 30.1745 43.8393 30.098 43.7944C29.9451 43.7021 29.7551 43.6322 29.5479 43.6148C29.3407 43.5973 29.1409 43.6347 28.9732 43.6971C28.8918 43.7295 28.8153 43.7694 28.7487 43.8118C28.6846 43.8542 28.6254 43.8991 28.5785 43.9415C28.4799 44.0313 28.4157 44.1161 28.3787 44.176C28.359 44.2059 28.3442 44.2309 28.3343 44.2483C28.3269 44.2633 28.322 44.2733 28.322 44.2733C28.322 44.2733 28.3294 44.2683 28.3442 44.2558C28.359 44.2458 28.3837 44.2284 28.4108 44.2109C28.47 44.171 28.5539 44.1211 28.6624 44.0712C28.7142 44.0463 28.7759 44.0213 28.84 44.0014C28.9041 43.9789 28.9732 43.9615 29.0472 43.9465C29.1927 43.9191 29.3531 43.9066 29.5208 43.9216C29.6885 43.9365 29.8464 43.9739 29.987 44.0263C30.0561 44.0538 30.1227 44.0837 30.1819 44.1136C30.2115 44.1286 30.2411 44.1461 30.2682 44.1635C30.2954 44.181 30.3225 44.1959 30.3447 44.2134C30.4434 44.2807 30.5174 44.3456 30.5692 44.393Z" fill="white"/>
<path d="M30.7246 44.605C30.6432 44.6524 30.6136 44.7597 30.6629 44.842C30.7098 44.9243 30.8134 44.9517 30.8948 44.9043C30.9787 44.8569 31.0058 44.7497 30.9589 44.6674C30.9096 44.5851 30.806 44.5576 30.7246 44.605Z" fill="white"/>
<mask id="mask1_232_12719" style="mask-type:luminance" maskUnits="userSpaceOnUse" x="47" y="65" width="12" height="12">
<path d="M47.244 65.734H58.1V76.7089H47.244V65.734Z" fill="white"/>
</mask>
<g mask="url(#mask1_232_12719)">
<path d="M51.9283 75.6837C54.3629 76.1152 56.6915 74.464 57.1182 72.0022C57.5474 69.5428 55.9145 67.1882 53.4798 66.7542C51.0452 66.3227 48.7191 67.9739 48.2899 70.4358C47.8632 72.8951 49.4961 75.2497 51.9283 75.6837ZM51.7704 76.5916C48.8425 76.0703 46.879 73.2368 47.392 70.2761C47.9076 67.3129 50.7097 65.3275 53.6377 65.8463C56.5682 66.3676 58.5316 69.2011 58.0161 72.1618C57.503 75.125 54.7009 77.1104 51.7704 76.5916Z" fill="white"/>
</g>
<path d="M52.4512 74.7433C52.3674 74.7558 52.3008 74.7607 52.2564 74.7657C52.212 74.7682 52.1873 74.7707 52.1873 74.7707C52.1873 74.7707 52.2095 74.7807 52.2514 74.7957C52.2958 74.8131 52.3575 74.8381 52.4414 74.8605C52.6066 74.9104 52.8558 74.9678 53.174 74.9777C53.2529 74.9827 53.3368 74.9777 53.4256 74.9753C53.5119 74.9678 53.6032 74.9628 53.6969 74.9453C53.8844 74.9179 54.0842 74.873 54.2889 74.7982C54.6935 74.6535 55.1177 74.4041 55.4754 74.0424C55.8331 73.6807 56.0798 73.2492 56.2204 72.8377C56.2919 72.6306 56.3338 72.4286 56.361 72.239C56.3881 72.0495 56.3955 71.8699 56.3906 71.7102C56.3807 71.3885 56.3215 71.1366 56.2722 70.9694C56.2475 70.8846 56.2253 70.8223 56.208 70.7799C56.1908 70.7375 56.1834 70.715 56.1834 70.715C56.1834 70.715 56.1809 70.7375 56.176 70.7824C56.1735 70.8298 56.1686 70.8946 56.1587 70.9794C56.139 71.149 56.102 71.3885 56.023 71.6678C55.9836 71.8075 55.9342 71.9572 55.8726 72.1118C55.8109 72.264 55.7393 72.4261 55.6481 72.5832C55.4729 72.9025 55.2411 73.2218 54.9525 73.5136C54.6639 73.8079 54.3481 74.0424 54.0349 74.2245C53.877 74.3143 53.7191 74.3891 53.5687 74.4539C53.4922 74.4864 53.4157 74.5113 53.3442 74.5388C53.2702 74.5637 53.2011 74.5886 53.1296 74.6061C52.8558 74.6859 52.6165 74.7258 52.4512 74.7433Z" fill="white"/>
<path d="M51.82 74.7059C51.8594 74.4764 51.709 74.2594 51.482 74.2195C51.2575 74.1796 51.0405 74.3317 51.001 74.5612C50.9615 74.7882 51.112 75.0052 51.3389 75.0476C51.5634 75.0875 51.7805 74.9329 51.82 74.7059Z" fill="white"/>
<path d="M31.4696 84.9599C30.89 83.6155 29.3359 82.9994 28.0064 83.5856C26.6768 84.1718 26.0676 85.7407 26.6472 87.0851C27.2269 88.4295 28.7785 89.0456 30.108 88.4619C31.4376 87.8758 32.0493 86.3044 31.4696 84.9599ZM31.9605 84.7429C32.6561 86.3617 31.9235 88.2499 30.3226 88.9558C28.7217 89.6617 26.8544 88.9184 26.1564 87.3021C25.4583 85.6833 26.1934 83.7926 27.7918 83.0892C29.3927 82.3834 31.2624 83.1267 31.9605 84.7429Z" fill="white"/>
<path d="M30.8454 85.0048C30.8775 85.0423 30.9022 85.0747 30.9194 85.0946C30.9342 85.1171 30.9441 85.1271 30.9441 85.1271C30.9441 85.1271 30.9416 85.1121 30.9342 85.0871C30.9293 85.0622 30.9219 85.0223 30.9046 84.9724C30.875 84.8751 30.8232 84.733 30.7246 84.5733C30.6999 84.5309 30.6703 84.491 30.6407 84.4486C30.6111 84.4087 30.5765 84.3663 30.5395 84.3239C30.4655 84.2391 30.3792 84.1568 30.2781 84.0795C30.0758 83.9248 29.8168 83.7976 29.5257 83.7377C29.2347 83.6779 28.9461 83.6953 28.7019 83.7602C28.5785 83.7901 28.4651 83.835 28.3664 83.8824C28.2653 83.9323 28.1765 83.9872 28.1 84.0396C27.9495 84.1493 27.8459 84.259 27.7818 84.3389C27.7472 84.3788 27.725 84.4112 27.7102 84.4312C27.6954 84.4536 27.6856 84.4661 27.6856 84.4661C27.6856 84.4661 27.6979 84.4586 27.7226 84.4461C27.7448 84.4336 27.7793 84.4137 27.8237 84.3912C27.91 84.3463 28.0383 84.2865 28.1987 84.2366C28.2801 84.2092 28.3689 84.1867 28.4626 84.1668C28.5563 84.1468 28.6575 84.1318 28.7635 84.1244C28.9757 84.1069 29.2051 84.1194 29.4394 84.1668C29.6737 84.2142 29.8908 84.294 30.0807 84.3912C30.1769 84.4386 30.2633 84.4935 30.3422 84.5484C30.3841 84.5733 30.4211 84.6033 30.4581 84.6307C30.4927 84.6581 30.5272 84.6856 30.5593 84.713C30.6876 84.8252 30.7813 84.93 30.8454 85.0048Z" fill="white"/>
<path d="M31.0328 85.3315C30.9095 85.3839 30.8528 85.531 30.9046 85.6557C30.9588 85.7805 31.1019 85.8353 31.2252 85.7829C31.3486 85.7281 31.4053 85.5834 31.3511 85.4587C31.2992 85.334 31.1562 85.2766 31.0328 85.3315Z" fill="white"/>
<path d="M54.5332 37.0024C55.4583 36.7979 56.0503 35.87 55.848 34.9347C55.6482 33.9968 54.7306 33.3982 53.8031 33.6027C52.8781 33.8048 52.2861 34.7326 52.4884 35.6705C52.6882 36.6083 53.6058 37.2045 54.5332 37.0024ZM54.6072 37.3466C53.4923 37.5911 52.3872 36.8727 52.1455 35.7453C51.9037 34.6179 52.6142 33.5005 53.7291 33.256C54.8465 33.0116 55.9491 33.7299 56.1909 34.8598C56.4326 35.9873 55.7222 37.1022 54.6072 37.3466Z" fill="white"/>
<path d="M54.5826 36.5909C54.5555 36.6084 54.5333 36.6183 54.5185 36.6283C54.5012 36.6358 54.4938 36.6408 54.4938 36.6408C54.4938 36.6408 54.5037 36.6408 54.521 36.6383C54.5382 36.6383 54.5629 36.6383 54.5974 36.6358C54.6616 36.6283 54.7602 36.6109 54.8737 36.5685C54.9033 36.5585 54.9304 36.546 54.9625 36.531C54.9921 36.5161 55.0242 36.5011 55.0538 36.4812C55.1179 36.4437 55.182 36.3988 55.2437 36.3415C55.367 36.2317 55.483 36.0796 55.557 35.9C55.6334 35.7179 55.6581 35.5283 55.6482 35.3612C55.6458 35.2789 55.631 35.1991 55.6137 35.1293C55.5964 35.0569 55.5718 34.9921 55.5471 34.9372C55.4978 34.8225 55.441 34.7426 55.3991 34.6903C55.3794 34.6628 55.3621 34.6454 55.3498 34.6329C55.3374 34.6204 55.3325 34.6129 55.3325 34.6129C55.3325 34.6129 55.335 34.6229 55.3399 34.6379C55.3448 34.6553 55.3522 34.6803 55.3596 34.7102C55.3769 34.7726 55.3991 34.8649 55.4114 34.9746C55.4188 35.0295 55.4213 35.0918 55.4213 35.1542C55.4213 35.2191 55.4188 35.2864 55.409 35.3562C55.3942 35.4959 55.3572 35.6431 55.2955 35.7878C55.2363 35.9349 55.1574 36.0646 55.071 36.1744C55.0291 36.2292 54.9847 36.2791 54.9378 36.324C54.9156 36.3465 54.8934 36.3689 54.8712 36.3889C54.849 36.4088 54.8268 36.4263 54.8046 36.4437C54.7183 36.5111 54.6394 36.561 54.5826 36.5909Z" fill="white"/>
<path d="M54.3531 36.6706C54.3358 36.5833 54.2495 36.5285 54.1632 36.5484C54.0768 36.5659 54.0226 36.6532 54.0423 36.738C54.0596 36.8253 54.1459 36.8801 54.2322 36.8627C54.3161 36.8427 54.3728 36.7579 54.3531 36.6706Z" fill="white"/>
<path d="M49.6245 33.9395C49.9772 32.6175 49.2026 31.2507 47.8953 30.894C46.5879 30.5348 45.2362 31.3205 44.881 32.6425C44.5283 33.9645 45.3028 35.3313 46.6101 35.6905C47.9175 36.0472 49.2692 35.2615 49.6245 33.9395ZM50.1055 34.0717C49.6812 35.6631 48.0532 36.6059 46.4819 36.1769C44.9081 35.7454 43.9732 34.1016 44.4 32.5103C44.8243 30.9189 46.4523 29.9761 48.026 30.4051C49.5998 30.8366 50.5322 32.4804 50.1055 34.0717Z" fill="white"/>
<path d="M49.1435 33.6052C49.146 33.6526 49.1435 33.69 49.146 33.7125C49.146 33.7399 49.146 33.7524 49.146 33.7524C49.146 33.7524 49.1509 33.7399 49.1608 33.7175C49.1731 33.695 49.1879 33.6626 49.2052 33.6177C49.2422 33.5279 49.2841 33.3932 49.3039 33.2186C49.3113 33.1737 49.3138 33.1288 49.3162 33.079C49.3162 33.0316 49.3187 32.9817 49.3137 32.9268C49.3088 32.8245 49.294 32.7098 49.2644 32.5951C49.2052 32.3631 49.0917 32.1162 48.9141 31.9017C48.7365 31.6871 48.517 31.53 48.2999 31.4302C48.1939 31.3803 48.0853 31.3479 47.9842 31.323C47.8831 31.298 47.7869 31.2881 47.7005 31.2806C47.5254 31.2706 47.3873 31.2906 47.2935 31.3105C47.2491 31.318 47.2121 31.328 47.1899 31.3355C47.1653 31.3429 47.1529 31.3479 47.1529 31.3479C47.1529 31.3479 47.1653 31.3504 47.1899 31.3529C47.2146 31.3579 47.2491 31.3629 47.2935 31.3729C47.3848 31.3928 47.5131 31.4252 47.6586 31.4826C47.7326 31.5101 47.8115 31.545 47.8905 31.5874C47.9719 31.6298 48.0533 31.6772 48.1347 31.7345C48.2999 31.8468 48.4603 31.9914 48.6033 32.1636C48.7464 32.3382 48.8599 32.5227 48.9413 32.7073C48.9832 32.7971 49.0153 32.8869 49.0424 32.9742C49.0572 33.0191 49.0646 33.0615 49.0769 33.1039C49.0868 33.1438 49.0967 33.1837 49.1041 33.2236C49.1337 33.3808 49.1411 33.513 49.1435 33.6052Z" fill="white"/>
<path d="M49.0918 33.9519C48.9709 33.9195 48.8451 33.9918 48.813 34.114C48.781 34.2362 48.85 34.3635 48.9734 34.3959C49.0942 34.4308 49.2201 34.3585 49.2521 34.2338C49.2842 34.1115 49.2127 33.9843 49.0918 33.9519Z" fill="white"/>
<path d="M51.3338 31.3554C53.1419 31.0287 54.3506 29.2752 54.0274 27.4469C53.7043 25.6186 51.9727 24.3964 50.1621 24.7206C48.354 25.0474 47.1453 26.8009 47.4685 28.6292C47.7892 30.4575 49.5232 31.6797 51.3338 31.3554ZM51.4522 32.0289C49.2741 32.4205 47.1897 30.9513 46.8 28.7489C46.4127 26.5489 47.8681 24.4388 50.0437 24.0472C52.2193 23.6531 54.3062 25.1247 54.6959 27.3272C55.0832 29.5271 53.6278 31.6373 51.4522 32.0289Z" fill="white"/>
<path d="M51.4596 30.5647C51.4054 30.5946 51.361 30.6146 51.3289 30.6295C51.2993 30.6445 51.2845 30.652 51.2845 30.652C51.2845 30.652 51.3018 30.652 51.3338 30.652C51.3684 30.652 51.4177 30.6545 51.4818 30.6495C51.6101 30.642 51.8 30.6171 52.0245 30.5398C52.0812 30.5223 52.138 30.4998 52.1972 30.4749C52.2564 30.4475 52.3205 30.42 52.3822 30.3851C52.5055 30.3178 52.6338 30.233 52.7571 30.1282C53.0038 29.9237 53.2356 29.6393 53.3935 29.2926C53.5514 28.9484 53.6155 28.5842 53.6106 28.26C53.6081 28.0979 53.5884 27.9457 53.5588 27.806C53.5292 27.6663 53.4897 27.5416 53.4453 27.4294C53.3565 27.2074 53.2529 27.0478 53.1764 26.943C53.137 26.8906 53.1049 26.8532 53.0827 26.8258C53.0605 26.8008 53.0482 26.7884 53.0482 26.7884C53.0482 26.7884 53.0531 26.8058 53.063 26.8382C53.0704 26.8707 53.0852 26.9181 53.0975 26.9804C53.1271 27.1026 53.1616 27.2797 53.1789 27.4942C53.1863 27.6015 53.1888 27.7187 53.1838 27.8434C53.1814 27.9682 53.1715 28.0979 53.1493 28.2301C53.1049 28.4994 53.0235 28.7838 52.8952 29.0606C52.7694 29.34 52.6091 29.5869 52.434 29.794C52.3476 29.8962 52.2564 29.991 52.1676 30.0733C52.1232 30.1157 52.0763 30.1531 52.0319 30.1906C51.9875 30.2255 51.9431 30.2629 51.9012 30.2928C51.7285 30.42 51.5706 30.5073 51.4596 30.5647Z" fill="white"/>
<path d="M51.0083 30.7018C50.9787 30.5322 50.8183 30.4175 50.6506 30.4474C50.4829 30.4798 50.3719 30.642 50.4015 30.8116C50.4311 30.9812 50.5914 31.0934 50.7591 31.0635C50.9269 31.0311 51.0403 30.8689 51.0083 30.7018Z" fill="white"/>
<path d="M44.8539 49.6634C46.2525 49.1994 47.0172 47.6704 46.5584 46.2537C46.0971 44.8394 44.585 44.0662 43.1864 44.5302C41.7853 44.9941 41.0207 46.5256 41.4795 47.9398C41.9407 49.3566 43.4528 50.1298 44.8539 49.6634ZM45.0216 50.1872C43.3369 50.7459 41.5165 49.8155 40.9639 48.1119C40.4114 46.4083 41.3315 44.5676 43.0162 44.0088C44.701 43.4476 46.5214 44.378 47.0739 46.0816C47.6265 47.7852 46.7064 49.626 45.0216 50.1872Z" fill="white"/>
<path d="M44.8661 49.0223C44.8242 49.0522 44.7921 49.0722 44.7699 49.0872C44.7477 49.1021 44.7354 49.1121 44.7354 49.1121C44.7354 49.1121 44.7502 49.1096 44.7773 49.1071C44.802 49.1021 44.8439 49.0971 44.8933 49.0872C44.9944 49.0647 45.1399 49.0248 45.3101 48.94C45.3545 48.92 45.3965 48.8926 45.4409 48.8677C45.4853 48.8377 45.5321 48.8103 45.5765 48.7754C45.6678 48.7055 45.7615 48.6257 45.8479 48.5284C46.0205 48.3364 46.1735 48.0845 46.2598 47.7926C46.3486 47.5008 46.356 47.204 46.3166 46.9471C46.2968 46.8199 46.2623 46.7001 46.2253 46.5929C46.1858 46.4856 46.1389 46.3908 46.0921 46.3085C45.9983 46.1414 45.8972 46.0242 45.8257 45.9519C45.7887 45.9144 45.7591 45.887 45.7393 45.8695C45.7171 45.8521 45.7073 45.8421 45.7073 45.8421C45.7073 45.8421 45.7122 45.8571 45.7221 45.8795C45.7344 45.9045 45.7492 45.9419 45.7665 45.9893C45.8035 46.084 45.8503 46.2212 45.8873 46.3883C45.9071 46.4732 45.9219 46.5654 45.9317 46.6652C45.9416 46.7625 45.949 46.8673 45.9465 46.977C45.9416 47.194 45.9095 47.4285 45.838 47.6654C45.7689 47.8999 45.6678 48.1144 45.5543 48.299C45.4951 48.3913 45.4335 48.4761 45.3718 48.5509C45.3422 48.5908 45.3101 48.6257 45.2781 48.6606C45.246 48.6931 45.2164 48.728 45.1843 48.7554C45.0635 48.8776 44.9475 48.9649 44.8661 49.0223Z" fill="white"/>
<path d="M44.5234 49.182C44.4815 49.0498 44.3409 48.98 44.2101 49.0224C44.0819 49.0648 44.0103 49.207 44.0523 49.3392C44.0967 49.4689 44.2348 49.5412 44.3655 49.4963C44.4963 49.4539 44.5653 49.3142 44.5234 49.182Z" fill="white"/>
<path d="M45.3201 57.0814C42.6906 56.4803 40.071 58.1539 39.4765 60.8128C38.882 63.4717 40.5396 66.1232 43.1667 66.7218C45.7962 67.3229 48.4183 65.6492 49.0127 62.9903C49.6047 60.3314 47.9496 57.68 45.3201 57.0814ZM45.5396 56.0986C48.7019 56.822 50.695 60.0122 49.9821 63.2123C49.2668 66.41 46.1119 68.4254 42.9471 67.702C39.7848 66.9812 37.7917 63.791 38.5071 60.5908C39.2199 57.3932 42.3748 55.3778 45.5396 56.0986Z" fill="white"/>
<path d="M44.7034 58.0741C44.7946 58.0666 44.8662 58.0666 44.9155 58.0641C44.9648 58.0616 44.992 58.0592 44.992 58.0592C44.992 58.0592 44.9673 58.0492 44.9229 58.0292C44.876 58.0093 44.8094 57.9793 44.7206 57.9494C44.543 57.8846 44.2742 57.8097 43.9288 57.7823C43.8425 57.7748 43.7512 57.7748 43.655 57.7723C43.5613 57.7748 43.4602 57.7773 43.3566 57.7898C43.1518 57.8097 42.9298 57.8471 42.7053 57.917C42.2564 58.0542 41.7803 58.3036 41.3733 58.6802C40.9663 59.0544 40.6753 59.5108 40.5001 59.9523C40.4113 60.1743 40.3521 60.3913 40.3151 60.5958C40.2756 60.8029 40.2584 60.9949 40.2559 61.172C40.251 61.5212 40.3003 61.7981 40.3447 61.9827C40.3669 62.0774 40.3891 62.1473 40.4039 62.1947C40.4212 62.2421 40.431 62.267 40.431 62.267C40.431 62.267 40.4335 62.2396 40.4384 62.1922C40.4458 62.1423 40.4557 62.07 40.4705 61.9777C40.5001 61.7956 40.5544 61.5362 40.6531 61.2369C40.7024 61.0872 40.7641 60.9251 40.8405 60.7605C40.9145 60.5958 41.0009 60.4262 41.1069 60.2591C41.3166 59.9199 41.5855 59.5832 41.916 59.2813C42.2441 58.9795 42.5993 58.7376 42.952 58.558C43.1271 58.4657 43.3023 58.3934 43.4725 58.3335C43.5564 58.3011 43.6402 58.2762 43.7192 58.2512C43.8006 58.2288 43.8795 58.2038 43.956 58.1889C44.2594 58.1165 44.5208 58.0866 44.7034 58.0741Z" fill="white"/>
<path d="M45.3892 58.1513C45.3349 58.3983 45.4879 58.6427 45.7321 58.6976C45.9763 58.7525 46.218 58.5978 46.2723 58.3509C46.329 58.1064 46.1736 57.8595 45.9319 57.8046C45.6877 57.7498 45.446 57.9044 45.3892 58.1513Z" fill="white"/>
<path d="M39.1804 48.5384C39.2716 48.4611 39.284 48.3239 39.2075 48.2317C39.131 48.1394 38.9954 48.1269 38.9041 48.2042C38.8128 48.2815 38.8005 48.4187 38.877 48.511C38.9534 48.6033 39.0891 48.6158 39.1804 48.5384ZM39.2075 48.5734C39.099 48.6657 38.9362 48.6507 38.8424 48.5384C38.7512 48.4287 38.766 48.2616 38.877 48.1693C38.9855 48.077 39.1508 48.092 39.242 48.2042C39.3333 48.314 39.3185 48.4786 39.2075 48.5734Z" fill="white"/>
<path d="M39.1633 48.491L39.1583 48.4985L39.1657 48.4935C39.1731 48.4886 39.183 48.4811 39.1929 48.4711L39.2077 48.4511C39.2126 48.4412 39.2175 48.4337 39.2225 48.4237C39.2299 48.4037 39.2323 48.3813 39.2299 48.3564C39.2299 48.3314 39.22 48.309 39.2101 48.2915C39.2052 48.2815 39.1978 48.274 39.1929 48.2666L39.1756 48.2491C39.1633 48.2391 39.1509 48.2341 39.1435 48.2316L39.1361 48.2267H39.1312L39.1411 48.2366C39.146 48.2416 39.1534 48.2491 39.1608 48.2616C39.1657 48.2666 39.1707 48.274 39.1731 48.2815C39.1781 48.289 39.1805 48.2965 39.183 48.304C39.1904 48.3214 39.1929 48.3389 39.1953 48.3589C39.1978 48.3788 39.1953 48.3963 39.1929 48.4137C39.1904 48.4237 39.1904 48.4312 39.1855 48.4387L39.183 48.4511L39.1781 48.4611C39.1731 48.4736 39.1682 48.4836 39.1633 48.491Z" fill="white"/>
<path d="M39.1409 48.511C39.1335 48.5035 39.1211 48.501 39.1137 48.5085C39.1039 48.516 39.1039 48.5285 39.1113 48.5384C39.1187 48.5459 39.131 48.5484 39.1384 48.5409C39.1483 48.5335 39.1483 48.521 39.1409 48.511Z" fill="white"/>
<path d="M39.1114 74.454C38.9461 74.429 38.7932 74.5463 38.771 74.7134C38.7488 74.8805 38.8647 75.0351 39.0275 75.0576C39.1928 75.08 39.3457 74.9653 39.3679 74.7982C39.3926 74.6311 39.2766 74.4764 39.1114 74.454ZM39.1212 74.3916C39.3186 74.419 39.4567 74.6061 39.4296 74.8057C39.4024 75.0077 39.2174 75.1474 39.0201 75.1199C38.8228 75.0925 38.6822 74.9054 38.7093 74.7059C38.7389 74.5038 38.9214 74.3642 39.1212 74.3916Z" fill="white"/>
<path d="M39.0794 74.5164H39.0967L39.0917 74.5139L39.0794 74.5089C39.0671 74.5064 39.0523 74.5039 39.0301 74.5039H39.0128L38.9955 74.5064C38.9832 74.5089 38.9684 74.5139 38.9561 74.5189C38.9289 74.5289 38.8993 74.5463 38.8771 74.5713C38.8549 74.5962 38.8377 74.6261 38.8303 74.6561C38.8253 74.6685 38.8229 74.6835 38.8204 74.696C38.8204 74.7085 38.8204 74.7209 38.8204 74.7309C38.8229 74.7534 38.8278 74.7708 38.8303 74.7808L38.8352 74.7933L38.8377 74.7982V74.7808C38.8401 74.7683 38.8401 74.7534 38.8451 74.7334C38.8475 74.7234 38.85 74.7134 38.8549 74.7035C38.8599 74.6935 38.8623 74.681 38.8697 74.671C38.8796 74.6486 38.8944 74.6261 38.9141 74.6062C38.9314 74.5862 38.9536 74.5688 38.9733 74.5563C38.9832 74.5488 38.9955 74.5438 39.0054 74.5388L39.0202 74.5339L39.0325 74.5289C39.0523 74.5214 39.0671 74.5189 39.0794 74.5164Z" fill="white"/>
<path d="M39.1213 74.5189C39.1189 74.5339 39.1312 74.5488 39.146 74.5513C39.1608 74.5538 39.1756 74.5413 39.1756 74.5264C39.1781 74.5114 39.1682 74.4964 39.1534 74.4939C39.1386 74.4914 39.1238 74.5039 39.1213 74.5189Z" fill="white"/>
<path d="M48.1963 78.405C47.4415 76.442 45.2462 75.4692 43.3049 76.2324C41.3661 76.9982 40.4016 79.2181 41.1589 81.1811C41.9161 83.1416 44.109 84.1169 46.0503 83.3511C47.9916 82.5854 48.9536 80.368 48.1963 78.405ZM48.9142 78.1231C49.8244 80.4852 48.665 83.1541 46.3291 84.0744C43.9931 84.9948 41.3537 83.8225 40.4435 81.4629C39.5333 79.1009 40.6926 76.4295 43.0261 75.5091C45.3621 74.5887 48.0015 75.761 48.9142 78.1231Z" fill="white"/>
<path d="M47.3008 78.4349C47.3452 78.4923 47.3772 78.5372 47.3994 78.5671C47.4216 78.5995 47.434 78.6145 47.434 78.6145C47.434 78.6145 47.4315 78.5945 47.4241 78.5571C47.4167 78.5197 47.4068 78.4623 47.3871 78.3925C47.3501 78.2503 47.2835 78.0433 47.1503 77.8064C47.1182 77.7465 47.0788 77.6891 47.0393 77.6243C46.9949 77.5644 46.9505 77.502 46.8987 77.4397C46.7976 77.315 46.6767 77.1903 46.5361 77.073C46.2549 76.8411 45.8898 76.6415 45.4779 76.5393C45.0635 76.437 44.6491 76.447 44.2939 76.5243C44.1163 76.5617 43.951 76.6191 43.8054 76.6839C43.6574 76.7463 43.5292 76.8186 43.4157 76.8934C43.1912 77.0406 43.0383 77.1928 42.9396 77.3025C42.8903 77.3574 42.8558 77.4023 42.8311 77.4322C42.8089 77.4646 42.7966 77.4796 42.7966 77.4796C42.7966 77.4796 42.8138 77.4721 42.8484 77.4547C42.8829 77.4372 42.9322 77.4123 42.9964 77.3823C43.1271 77.3225 43.3121 77.2451 43.5464 77.1778C43.6624 77.1454 43.7906 77.1179 43.9288 77.0955C44.0645 77.073 44.21 77.0556 44.3629 77.0506C44.6663 77.0406 44.9969 77.068 45.3299 77.1504C45.6653 77.2327 45.9712 77.3599 46.2376 77.5095C46.3708 77.5844 46.4942 77.6667 46.6052 77.749C46.6619 77.7889 46.7137 77.8338 46.763 77.8737C46.8124 77.9186 46.8617 77.9585 46.9061 78.0009C47.0837 78.1655 47.2144 78.3227 47.3008 78.4349Z" fill="white"/>
<path d="M47.55 78.9138C47.37 78.9836 47.2812 79.1882 47.3502 79.3702C47.4218 79.5523 47.624 79.6421 47.8041 79.5723C47.9842 79.4999 48.073 79.2954 48.0014 79.1133C47.9324 78.9312 47.7301 78.8415 47.55 78.9138Z" fill="white"/>
<mask id="mask2_232_12719" style="mask-type:luminance" maskUnits="userSpaceOnUse" x="27" y="109" width="11" height="11">
<path d="M27.0566 109.292H37.1503V119.433H27.0566V109.292Z" fill="white"/>
</mask>
<g mask="url(#mask2_232_12719)">
<path d="M34.5504 117.787C36.4152 116.433 36.8444 113.794 35.505 111.908C34.1631 110.02 31.5558 109.586 29.6885 110.943C27.8212 112.297 27.3945 114.936 28.7339 116.824C30.0733 118.71 32.6831 119.144 34.5504 117.787ZM35.0437 118.486C32.7966 120.114 29.6589 119.593 28.0457 117.323C26.4325 115.051 26.948 111.876 29.1952 110.247C31.4399 108.616 34.58 109.137 36.1932 111.407C37.8064 113.679 37.2909 116.854 35.0437 118.486Z" fill="white"/>
</g>
<path d="M34.2718 116.827C34.225 116.892 34.1855 116.939 34.1583 116.971C34.1337 117.004 34.1189 117.021 34.1189 117.021C34.1189 117.021 34.1386 117.014 34.1781 116.994C34.2151 116.976 34.2718 116.951 34.3409 116.909C34.4815 116.832 34.6813 116.702 34.8959 116.493C34.9502 116.443 35.002 116.383 35.0562 116.323C35.108 116.261 35.1648 116.196 35.2141 116.121C35.3177 115.976 35.4188 115.814 35.5027 115.627C35.6704 115.26 35.7814 114.814 35.7765 114.337C35.7691 113.864 35.6482 113.417 35.4682 113.053C35.3794 112.873 35.2733 112.711 35.1672 112.569C35.0587 112.429 34.9477 112.307 34.8367 112.207C34.6196 112.005 34.4174 111.881 34.2743 111.806C34.2028 111.766 34.146 111.741 34.1065 111.723C34.0695 111.708 34.0473 111.699 34.0473 111.699C34.0473 111.699 34.0621 111.716 34.0893 111.748C34.1164 111.781 34.1583 111.826 34.2077 111.888C34.3039 112.01 34.4396 112.192 34.5728 112.427C34.6369 112.544 34.7035 112.674 34.7652 112.816C34.8268 112.958 34.8836 113.11 34.9304 113.272C35.0266 113.599 35.0858 113.963 35.0908 114.347C35.0957 114.729 35.0439 115.096 34.96 115.425C34.9181 115.59 34.8638 115.744 34.8071 115.886C34.78 115.961 34.7479 116.026 34.7183 116.093C34.6862 116.158 34.6566 116.223 34.6246 116.281C34.4963 116.517 34.368 116.702 34.2718 116.827Z" fill="white"/>
<path d="M33.8352 117.226C33.7119 117.051 33.4701 117.011 33.2975 117.139C33.1248 117.263 33.0853 117.508 33.2087 117.682C33.332 117.857 33.5737 117.897 33.7464 117.772C33.9216 117.645 33.961 117.403 33.8352 117.226Z" fill="white"/>
<path d="M45.5521 100.29C47.1998 98.8056 47.3454 96.2415 45.8752 94.5778C44.4075 92.9117 41.8742 92.767 40.2289 94.2511C38.5812 95.7352 38.4356 98.2968 39.9033 99.963C41.3735 101.627 43.9068 101.774 45.5521 100.29ZM46.0947 100.903C44.114 102.689 41.0627 102.515 39.2965 100.509C37.5304 98.5063 37.7055 95.4234 39.6863 93.6375C41.667 91.8491 44.7159 92.0262 46.4845 94.0291C48.2506 96.0345 48.0755 99.1174 46.0947 100.903Z" fill="white"/>
<path d="M45.1918 99.4018C45.1548 99.4666 45.1203 99.514 45.0981 99.549C45.0759 99.5839 45.0636 99.6013 45.0636 99.6013C45.0636 99.6013 45.0833 99.5914 45.1178 99.5689C45.1524 99.549 45.2042 99.519 45.2658 99.4716C45.3941 99.3818 45.5692 99.2372 45.7518 99.0177C45.8011 98.9628 45.843 98.9029 45.8899 98.8381C45.9343 98.7732 45.9812 98.7059 46.0206 98.6311C46.1045 98.4814 46.1834 98.3143 46.2451 98.1297C46.3709 97.7606 46.4326 97.3216 46.3783 96.8701C46.3265 96.4162 46.1637 96.0046 45.9565 95.6754C45.8529 95.5107 45.737 95.3686 45.6186 95.2438C45.5026 95.1216 45.3842 95.0169 45.2708 94.9321C45.0413 94.76 44.8341 94.6627 44.6911 94.6053C44.6195 94.5754 44.5628 94.5579 44.5233 94.5454C44.4863 94.533 44.4641 94.528 44.4641 94.528C44.4641 94.528 44.4814 94.543 44.511 94.5704C44.5381 94.5978 44.5825 94.6377 44.6343 94.6926C44.7404 94.7999 44.8859 94.9595 45.0364 95.169C45.1129 95.2738 45.1894 95.391 45.2609 95.5207C45.3349 95.6479 45.404 95.7876 45.4656 95.9397C45.589 96.2416 45.6802 96.5833 45.7246 96.9474C45.7666 97.3141 45.7567 97.6683 45.7074 97.9925C45.6827 98.1522 45.6482 98.3068 45.6087 98.449C45.589 98.5213 45.5643 98.5887 45.5446 98.6535C45.5199 98.7184 45.4977 98.7832 45.473 98.8431C45.3744 99.0825 45.2708 99.2721 45.1918 99.4018Z" fill="white"/>
<path d="M44.8144 99.8258C44.6788 99.6712 44.4444 99.6587 44.2915 99.7959C44.1386 99.9331 44.1262 100.17 44.2619 100.325C44.3976 100.479 44.6319 100.494 44.7848 100.355C44.9378 100.217 44.9526 99.9805 44.8144 99.8258Z" fill="white"/>
<path d="M44.8071 50.1547C45.8899 49.6209 46.3413 48.2965 45.811 47.2015C45.2831 46.1065 43.9733 45.65 42.8904 46.1838C41.81 46.7176 41.3586 48.042 41.8865 49.137C42.4144 50.232 43.7242 50.6885 44.8071 50.1547ZM45.0019 50.5588C43.6995 51.2023 42.1208 50.6511 41.4869 49.3341C40.8505 48.0171 41.3931 46.4233 42.6956 45.7797C44.0004 45.1387 45.5767 45.6874 46.2106 47.0044C46.847 48.3214 46.3043 49.9152 45.0019 50.5588Z" fill="white"/>
<path d="M44.7479 49.6334C44.7183 49.6633 44.6912 49.6833 44.6764 49.6982C44.6591 49.7132 44.6517 49.7207 44.6517 49.7207C44.6517 49.7207 44.6616 49.7182 44.6838 49.7107C44.7035 49.7057 44.7356 49.6982 44.775 49.6833C44.8564 49.6533 44.9699 49.6059 45.0982 49.5162C45.1302 49.4962 45.1623 49.4688 45.1968 49.4438C45.2289 49.4139 45.2634 49.3865 45.2955 49.354C45.3621 49.2867 45.4262 49.2119 45.4879 49.1246C45.6063 48.95 45.7025 48.728 45.7395 48.481C45.779 48.2341 45.7543 47.9946 45.6926 47.7901C45.663 47.6878 45.6236 47.5956 45.5792 47.5132C45.5372 47.4309 45.4879 47.3586 45.441 47.2962C45.3473 47.174 45.2536 47.0892 45.1845 47.0393C45.1524 47.0119 45.1253 46.9944 45.1056 46.982C45.0883 46.9695 45.0784 46.9645 45.0784 46.9645C45.0784 46.9645 45.0834 46.9745 45.0957 46.9919C45.1056 47.0119 45.1228 47.0393 45.1426 47.0768C45.182 47.1491 45.2363 47.2538 45.2856 47.386C45.3103 47.4534 45.3325 47.5257 45.3498 47.6055C45.3695 47.6829 45.3868 47.7677 45.3966 47.855C45.4164 48.0321 45.4164 48.2266 45.3843 48.4237C45.3547 48.6232 45.298 48.8078 45.224 48.9699C45.187 49.0522 45.1475 49.127 45.1056 49.1969C45.0834 49.2318 45.0612 49.2617 45.0414 49.2942C45.0192 49.3241 44.997 49.3565 44.9748 49.3815C44.891 49.4937 44.8071 49.5785 44.7479 49.6334Z" fill="white"/>
<path d="M44.4863 49.8006C44.4369 49.7008 44.3161 49.6584 44.2149 49.7083C44.1163 49.7557 44.0743 49.8779 44.1237 49.9802C44.1705 50.0825 44.2939 50.1249 44.3925 50.075C44.4937 50.0251 44.5356 49.9029 44.4863 49.8006Z" fill="white"/>
<path d="M41.4646 48.4163C40.029 47.4185 38.0581 47.7877 37.069 49.2394C36.0823 50.6935 36.4473 52.6865 37.8854 53.6842C39.321 54.6844 41.2919 54.3127 42.2811 52.8611C43.2678 51.4094 42.9027 49.414 41.4646 48.4163ZM41.8297 47.88C43.5588 49.0822 43.9979 51.4817 42.8114 53.2302C41.6225 54.9787 39.2495 55.4227 37.5204 54.2204C35.7912 53.0182 35.3521 50.6187 36.5411 48.8727C37.7276 47.1242 40.1005 46.6802 41.8297 47.88Z" fill="white"/>
<path d="M40.8602 48.8627C40.917 48.8802 40.9589 48.8977 40.9885 48.9076C41.0206 48.9201 41.0354 48.9251 41.0354 48.9251C41.0354 48.9251 41.023 48.9126 41.0008 48.8902C40.9786 48.8652 40.9466 48.8328 40.8997 48.7929C40.8084 48.7106 40.6654 48.6008 40.4631 48.5011C40.4137 48.4736 40.357 48.4512 40.3003 48.4287C40.2435 48.4063 40.1819 48.3838 40.1177 48.3664C39.9895 48.3265 39.8489 48.2965 39.6959 48.2841C39.3925 48.2566 39.0497 48.2915 38.7142 48.4187C38.3812 48.546 38.0975 48.748 37.8879 48.9725C37.7818 49.0822 37.6954 49.1995 37.6239 49.3142C37.5524 49.4264 37.4956 49.5387 37.4537 49.6434C37.3674 49.853 37.3304 50.0325 37.3131 50.1548C37.3057 50.2146 37.3008 50.262 37.3008 50.2944C37.2983 50.3269 37.2983 50.3443 37.2983 50.3443C37.2983 50.3443 37.3057 50.3294 37.3205 50.3019C37.3378 50.2745 37.36 50.2321 37.3896 50.1822C37.4512 50.0799 37.545 49.9353 37.6757 49.7806C37.7423 49.7008 37.8163 49.621 37.9002 49.5412C37.9841 49.4589 38.0778 49.379 38.1814 49.3017C38.3861 49.1496 38.6279 49.0149 38.8967 48.9126C39.1681 48.8104 39.4394 48.7505 39.6935 48.728C39.8193 48.7156 39.9426 48.7156 40.0585 48.7206C40.1153 48.7206 40.172 48.728 40.2263 48.7305C40.2805 48.738 40.3323 48.7405 40.3841 48.7505C40.584 48.7804 40.7468 48.8278 40.8602 48.8627Z" fill="white"/>
<path d="M41.2524 49.0747C41.1612 49.2094 41.1957 49.394 41.3289 49.4863C41.4621 49.5811 41.6446 49.5461 41.7359 49.4115C41.8272 49.2768 41.7926 49.0922 41.6594 48.9999C41.5262 48.9076 41.3437 48.94 41.2524 49.0747Z" fill="white"/>
<path d="M28.8795 45.7898C28.0433 44.0089 25.9318 43.2456 24.1681 44.0912C22.4069 44.9343 21.6521 47.0719 22.4858 48.8528C23.322 50.6362 25.436 51.3994 27.1972 50.5539C28.9609 49.7108 29.7157 47.5732 28.8795 45.7898ZM29.5307 45.4805C30.5347 47.6231 29.6269 50.1947 27.5056 51.2124C25.3842 52.2275 22.841 51.3096 21.8371 49.1646C20.8307 47.022 21.7384 44.4504 23.8598 43.4327C25.9811 42.4175 28.5243 43.3354 29.5307 45.4805Z" fill="white"/>
<path d="M28.0434 45.8795C28.0903 45.9269 28.1223 45.9693 28.1445 45.9968C28.1692 46.0242 28.1815 46.0367 28.1815 46.0367C28.1815 46.0367 28.1766 46.0192 28.1667 45.9843C28.1593 45.9494 28.1445 45.897 28.1223 45.8322C28.0779 45.7025 28.0015 45.5129 27.8633 45.3034C27.8288 45.2485 27.7893 45.1961 27.7474 45.1412C27.703 45.0864 27.6561 45.029 27.6043 44.9766C27.5007 44.8669 27.3799 44.7571 27.2417 44.6574C26.963 44.4603 26.6103 44.2982 26.2156 44.2308C25.8234 44.1635 25.4361 44.1984 25.1105 44.2957C24.9452 44.3431 24.7972 44.4079 24.664 44.4778C24.5308 44.5451 24.4149 44.6224 24.3138 44.6998C24.114 44.8519 23.9808 45.0041 23.8969 45.1138C23.855 45.1687 23.8254 45.2111 23.8056 45.241C23.7859 45.2734 23.776 45.2884 23.776 45.2884C23.776 45.2884 23.7908 45.2784 23.8229 45.261C23.8525 45.241 23.8969 45.2161 23.9561 45.1836C24.072 45.1188 24.2422 45.034 24.4544 44.9567C24.5629 44.9192 24.6788 44.8818 24.8071 44.8519C24.9329 44.822 25.0661 44.797 25.2092 44.7821C25.4928 44.7521 25.8012 44.7571 26.1194 44.812C26.4376 44.8669 26.7311 44.9641 26.9901 45.0864C27.1209 45.1462 27.2393 45.2136 27.3503 45.2859C27.4045 45.3183 27.4563 45.3557 27.5057 45.3907C27.555 45.4281 27.6043 45.463 27.6463 45.5004C27.8239 45.6426 27.9546 45.7798 28.0434 45.8795Z" fill="white"/>
<path d="M28.3073 46.3085C28.1445 46.3859 28.0755 46.5829 28.1519 46.75C28.2284 46.9147 28.4257 46.9845 28.5885 46.9072C28.7513 46.8274 28.8204 46.6303 28.7439 46.4657C28.6675 46.3011 28.4701 46.2287 28.3073 46.3085Z" fill="white"/>
<path d="M27.8189 96.91C28.369 93.7473 26.2723 90.7217 23.1445 90.163C20.0192 89.6068 17.0247 91.7269 16.4746 94.8897C15.9245 98.0499 18.0212 101.078 21.1465 101.634C24.2743 102.19 27.2664 100.07 27.8189 96.91ZM28.9709 97.1146C28.3074 100.918 24.7084 103.47 20.9443 102.799C17.1801 102.131 14.6591 98.4889 15.3226 94.6826C15.9837 90.8789 19.5851 88.3272 23.3493 88.9982C27.111 89.6691 29.6344 93.3083 28.9709 97.1146Z" fill="white"/>
<path d="M26.6249 96.2316C26.6397 96.3388 26.6446 96.4236 26.652 96.4835C26.657 96.5409 26.6594 96.5708 26.6594 96.5708C26.6594 96.5708 26.6718 96.5434 26.6915 96.4885C26.7112 96.4336 26.7433 96.3513 26.7729 96.2441C26.837 96.0296 26.911 95.7053 26.9209 95.2912C26.9283 95.189 26.9209 95.0792 26.9184 94.967C26.911 94.8523 26.9036 94.7325 26.8839 94.6128C26.8494 94.3684 26.7902 94.109 26.6964 93.8446C26.5114 93.3158 26.1932 92.7645 25.7344 92.3006C25.2756 91.8367 24.728 91.5174 24.2051 91.3328C23.9411 91.2405 23.6846 91.1832 23.4429 91.1482C23.2011 91.1158 22.9767 91.1058 22.7719 91.1108C22.3624 91.1258 22.0442 91.2006 21.8321 91.263C21.7236 91.2954 21.6422 91.3253 21.5879 91.3478C21.5361 91.3677 21.5065 91.3802 21.5065 91.3802C21.5065 91.3802 21.5361 91.3827 21.5953 91.3877C21.652 91.3927 21.7359 91.4002 21.8444 91.4126C22.059 91.4376 22.3624 91.4875 22.7176 91.5872C22.8953 91.6396 23.0852 91.702 23.2801 91.7843C23.4774 91.8641 23.6797 91.9589 23.8819 92.0736C24.2865 92.3031 24.6935 92.6049 25.0635 92.9815C25.436 93.3532 25.7369 93.7647 25.9663 94.1738C26.0822 94.3783 26.176 94.5829 26.2574 94.7799C26.2993 94.8772 26.3314 94.977 26.3659 95.0693C26.3955 95.1665 26.4276 95.2563 26.4522 95.3461C26.5534 95.7053 26.6002 96.0146 26.6249 96.2316Z" fill="white"/>
<path d="M26.5757 97.0522C26.2871 96.9998 26.0084 97.1968 25.9591 97.4887C25.9073 97.783 26.1021 98.0624 26.3907 98.1122C26.6818 98.1646 26.9581 97.9701 27.0099 97.6757C27.0592 97.3839 26.8668 97.1021 26.5757 97.0522Z" fill="white"/>
<path fill-rule="evenodd" clip-rule="evenodd" d="M0 223.578C7.84402 232.113 16.5102 239.588 28.4012 241.057C36.0249 241.995 42.1526 240.649 46.7717 238.4C59.8578 232.026 71.092 223.815 83.0763 216.94C91.8229 211.925 101.273 210.233 110.41 210.527C120.385 210.847 128.776 214.108 135.187 218.712C144.375 225.309 148.795 235.336 143.515 244.595C136.628 256.668 123.597 252.03 118.953 239.729C121.864 254.358 137.806 261.868 146.095 246.603C147.939 243.209 148.435 238.589 147.998 234.419C147.498 229.628 144.248 225.125 141.163 220.483C150.096 227.392 155.19 235.796 151.842 247.471C154.245 244.731 155.592 241 154.622 235.081C152.71 228.681 148.93 222.736 141.807 217.607C133.751 212.53 124.491 207.953 112.973 206.765C105.71 206.015 98.171 206.37 88.1997 209.641C84.0721 210.996 79.4149 212.982 74.533 216.278C65.0702 222.662 56.2811 230.82 44.6359 235.524C29.948 241.456 14.7134 237.681 0 223.578Z" fill="#F1F1F1"/>
<path fill-rule="evenodd" clip-rule="evenodd" d="M51.2553 241.057C58.7306 240.478 65.6762 237.992 72.8253 234.858C81.7584 230.947 90.7296 228.9 99.3068 229.33C109.092 229.821 116.745 233.494 123.652 236.41C118.906 232.504 113.906 227.778 98.2389 226.673C89.5007 226.059 80.7498 228.65 71.9693 233.31C65.7398 236.62 58.7349 239.071 51.2553 241.057Z" fill="#F1F1F1"/>
<path fill-rule="evenodd" clip-rule="evenodd" d="M42.712 246.142C51.0053 246.537 59.0484 246.169 66.4178 243.709C72.6091 241.64 78.6945 239.185 84.996 237.515C94.1156 235.099 100.256 236.756 106.354 237.957C100.798 235.388 96.1878 231.101 83.5043 234.42C77.1562 236.077 71.4183 239.623 65.3499 242.162C59.0442 244.796 51.1832 245.774 42.712 246.142Z" fill="#F1F1F1"/>
<mask id="mask3_232_12719" style="mask-type:luminance" maskUnits="userSpaceOnUse" x="108" y="187" width="65" height="32">
<path d="M108.109 187.217H172.115V218.348H108.109V187.217Z" fill="white"/>
</mask>
<g mask="url(#mask3_232_12719)">
<path fill-rule="evenodd" clip-rule="evenodd" d="M109.13 208.755C115.855 205.485 122.021 200.321 130.272 195.923C136.832 192.429 144.621 192.149 151.202 194.819C159.601 198.225 164.102 210.224 156.825 214.174C152.969 216.261 148.909 216.033 146.93 211.631C147.464 217.843 153.355 218.545 157.914 215.871C165.589 211.373 164.555 197.155 152.486 192.828C146.43 190.658 138.37 191.211 130.06 194.376C136.565 191.465 143.871 188.396 152.27 190.176C158.745 191.544 164.368 195.529 166.581 200.79C168.742 205.95 167.288 211.241 162.949 215.836C168.462 213.153 173.234 208.773 170.424 199.685C168.593 193.766 163.254 188.554 152.058 187.787C143.519 187.199 135.544 189.045 129.632 193.271C122.788 198.164 116.359 203.867 109.13 208.755Z" fill="#F1F1F1"/>
</g>
<path fill-rule="evenodd" clip-rule="evenodd" d="M91.1915 220.04C103.515 217.129 115.033 217.44 125.148 222.916C131.234 226.213 136.124 230.531 134.971 237.072C134.353 240.588 131.382 241.517 127.284 240.171C129.751 243.293 133.514 244.801 137.107 239.948C141.959 233.394 137.645 225.643 125.788 220.04C114.181 214.551 102.417 215.117 91.1915 220.04Z" fill="#F1F1F1"/>
<path fill-rule="evenodd" clip-rule="evenodd" d="M40.1652 239.277C42.2629 238.299 44.3606 237.317 46.4583 236.34C34.7579 236.011 24.2272 231.438 14.4974 223.959C21.443 230.728 28.9268 236.945 40.1652 239.277Z" fill="#F1F1F1"/>
<path fill-rule="evenodd" clip-rule="evenodd" d="M27.3333 223.959C33.478 228.576 40.555 232.447 49.6661 234.683C51.4756 233.617 53.2851 232.552 55.0946 231.491C44.9665 231.872 35.813 229.023 27.3333 223.959Z" fill="#F1F1F1"/>
<path fill-rule="evenodd" clip-rule="evenodd" d="M43.6189 217.063C49.8568 220.746 56.2218 224.31 66.4474 224.213C67.8035 223.236 69.1596 222.254 70.5199 221.276C61.2223 222.254 52.2553 220.851 43.6189 217.063Z" fill="#F1F1F1"/>
<path fill-rule="evenodd" clip-rule="evenodd" d="M39.9151 209.531C48.7508 215.507 58.8027 219.943 72.2489 220.132C74.0542 219.067 75.868 218.001 77.6775 216.936C63.2904 217.822 51.0095 214.775 39.9151 209.531Z" fill="#F1F1F1"/>
<path fill-rule="evenodd" clip-rule="evenodd" d="M147.096 223.644C152.363 223.854 157.296 223.429 161.326 221.018C167.924 217.068 172.937 210.548 179.743 206.984C193.791 199.623 213.369 209.448 212.717 226.607C211.568 256.721 174.064 243.166 186.689 226.037C181.281 244.617 209.106 246.774 209.297 226.037C209.445 210.382 193.007 202.42 180.074 209.61C173.395 213.319 168.216 219.488 161.656 223.416C157.66 225.805 152.935 226.278 148.308 225.809C147.905 225.086 147.502 224.367 147.096 223.644Z" fill="#F1F1F1"/>
<path fill-rule="evenodd" clip-rule="evenodd" d="M151.066 230.031C166.326 228.282 173.289 212.911 189.007 214.06C173.081 214.319 167.589 231.162 152.388 232.885C151.948 231.934 151.511 230.982 151.066 230.031Z" fill="#F1F1F1"/>
<path fill-rule="evenodd" clip-rule="evenodd" d="M153.825 236.077C167.165 235.708 172.988 220.614 185.256 221.473C172.899 223.758 167.14 236.953 153.935 238.817C153.897 237.905 153.863 236.989 153.825 236.077Z" fill="#F1F1F1"/>
<path fill-rule="evenodd" clip-rule="evenodd" d="M194.299 214.398C207.165 219.273 204.58 241.197 192.867 234.823C188.731 232.574 190.676 229.106 190.99 226.493C191.104 228.435 190.68 231.031 193.308 232.311C203.512 237.3 203.262 219.194 194.299 214.398Z" fill="#F1F1F1"/>
<path fill-rule="evenodd" clip-rule="evenodd" d="M211.615 228.435C211.246 229.615 210.877 230.794 210.513 231.973C222.773 238.313 235.855 237.883 249 236.879C235.105 236.164 221.976 234.323 211.615 228.435Z" fill="#F1F1F1"/>
<path fill-rule="evenodd" clip-rule="evenodd" d="M209.848 234.481C218.268 239.426 227.604 241.517 237.198 242.811C227.002 242.46 216.865 241.982 208.746 237.335C209.115 236.384 209.483 235.432 209.848 234.481Z" fill="#F1F1F1"/>
<path fill-rule="evenodd" clip-rule="evenodd" d="M207.203 239.159C212.191 242.201 218.789 244.292 225.845 246.12C217.268 245.209 209.288 244.069 205.436 241.329C206.03 240.601 206.614 239.882 207.203 239.159Z" fill="#F1F1F1"/>
<path fill-rule="evenodd" clip-rule="evenodd" d="M124.598 207.098C134.45 203.065 142.243 203.6 147.977 208.694C147.392 206.603 145.074 204.512 142.133 202.42C148.21 202.193 152.011 204.854 154.266 209.496C154.117 203.863 151.244 199.032 142.243 198.997C135.366 198.97 129.386 202.136 124.598 207.098Z" fill="#F1F1F1"/>
</svg>
