<svg width="211" height="64" viewBox="0 0 211 64" fill="none" xmlns="http://www.w3.org/2000/svg">
<path d="M4.48677 8.57556C6.65536 12.3828 6.53073 14.9698 3.8636 20.2659C1.14662 25.6351 1.17155 25.4642 3.41493 22.9748C8.5498 17.2152 16.2022 14.0912 24.2036 14.4817C32.5789 14.8967 38.7358 18.8747 38.7856 23.9511C38.8354 26.7333 37.4645 27.0262 33.0775 25.2445C23.9045 21.4861 22.3092 21.0224 17.9969 20.8271C14.0586 20.6807 11.9896 21.0712 8.87384 22.5844C4.91052 24.488 2.0689 27.5387 0.623162 31.4436C0.0997057 32.7858 0 33.518 0 35.5193C0.0249265 43.4267 6.00728 51.7001 14.0586 54.9461C18.9192 56.8985 24.3781 57.289 29.3385 55.9711C30.7344 55.605 35.4454 53.6038 35.4454 53.3841C35.4454 53.3353 34.5232 53.555 33.4015 53.8967C30.5848 54.702 25.3502 54.9217 22.1347 54.336C17.4984 53.4817 13.4603 51.4805 10.9676 48.8447C8.15095 45.8672 8.17589 42.8166 11.0922 40.0831L11.9647 39.2533L12.4882 40.0099C13.1861 40.9617 15.6538 42.1332 17.9969 42.6213C22.1846 43.4999 27.2197 42.6213 27.4192 40.9862C27.4939 40.2784 26.9455 39.7414 24.2784 37.8622C21.2872 35.7634 19.2433 32.7127 19.0688 30.028C18.8444 26.9285 20.6391 25.1469 23.9793 25.1469C27.0452 25.1469 29.7871 26.294 35.1214 29.8084C39.4586 32.6638 41.4527 33.6889 42.6991 33.6889C44.4439 33.6889 45.8398 32.5906 46.2636 30.9554C46.4629 30.1257 45.8398 27.3435 44.9923 25.3178C43.4718 21.6081 40.5305 17.8253 37.3648 15.4823C32.8282 12.1144 26.2476 10.3328 20.7389 10.9917C19.5673 11.1381 18.0966 11.309 17.4485 11.4066C16.3767 11.5287 16.1523 11.4554 14.9559 10.6257C12.4383 8.84403 9.57179 7.89221 5.33427 7.42851L3.73897 7.25769L4.48677 8.57556Z" fill="#048CBF"/>
<path d="M45.2167 39.4486C44.768 39.8147 43.422 40.4737 42.2504 40.913C39.8326 41.8404 39.2592 42.2552 38.7856 43.3779C38.4367 44.1589 38.4367 44.1589 37.664 43.7684C37.0408 43.4511 36.5423 43.4267 35.0965 43.5976C34.1244 43.7196 32.4543 43.8172 31.3825 43.8172C29.8869 43.8172 29.4881 43.8904 29.5878 44.1345C29.6626 44.3297 29.7124 44.5738 29.7124 44.6714C29.7124 45.0375 31.2329 46.6239 31.9309 46.9899C32.2798 47.1607 33.1523 47.3805 33.8253 47.478C35.4954 47.7221 37.0906 48.4054 37.4396 49.0644C37.7387 49.6257 37.6889 51.0168 37.315 51.871C36.966 52.652 39.5833 50.3823 41.1287 48.5763C42.6493 46.7947 44.1698 44.3541 44.8677 42.5725C45.3413 41.4011 46.1888 38.8141 46.0891 38.8141C46.0642 38.8141 45.6654 39.107 45.2167 39.4486Z" fill="#048CBF"/>
<path d="M58.5418 49.2048C55.2399 49.2048 52.8587 48.8564 51.3983 48.1597C49.9378 47.4313 49.0012 46.2595 48.5885 44.6443C48.2075 42.9975 48.017 40.353 48.017 36.711C48.017 33.0689 48.2075 30.4403 48.5885 28.8251C49.0012 27.1783 49.9378 26.0065 51.3983 25.3097C52.8587 24.5813 55.2399 24.2171 58.5418 24.2171C61.8755 24.2171 64.2567 24.5813 65.6854 25.3097C67.1456 26.0065 68.0822 27.1783 68.4949 28.8251C68.9077 30.4403 69.1141 33.0689 69.1141 36.711C69.1141 40.353 68.9077 42.9975 68.4949 44.6443C68.0822 46.2595 67.1456 47.4313 65.6854 48.1597C64.2567 48.8564 61.8755 49.2048 58.5418 49.2048ZM58.5418 43.1242C59.4308 43.1242 60.034 43.0133 60.3515 42.7916C60.669 42.5383 60.8595 42.0157 60.923 41.2239C61.0183 40.4322 61.0659 38.9279 61.0659 36.711C61.0659 34.4941 61.0183 32.9897 60.923 32.198C60.8595 31.4062 60.669 30.8995 60.3515 30.6778C60.034 30.4244 59.4308 30.2978 58.5418 30.2978C57.6846 30.2978 57.0972 30.4244 56.7798 30.6778C56.4623 30.8995 56.2559 31.4062 56.1606 32.198C56.0971 32.9897 56.0654 34.4941 56.0654 36.711C56.0654 38.9279 56.0971 40.4322 56.1606 41.2239C56.2559 42.0157 56.4623 42.5383 56.7798 42.7916C57.0972 43.0133 57.6846 43.1242 58.5418 43.1242ZM78.1527 49.2048C76.4382 49.2048 75.0889 48.8564 74.1046 48.1597C73.1522 47.4313 72.4378 46.1803 71.9616 44.4068C71.5171 42.6016 71.2948 40.0522 71.2948 36.7585C71.2948 33.5281 71.5171 31.0103 71.9616 29.2051C72.4061 27.3999 73.1204 26.1173 74.1046 25.3572C75.0889 24.5971 76.4382 24.2171 78.1527 24.2171C79.4861 24.2171 80.6132 24.4388 81.534 24.8822C82.4864 25.2939 83.2484 26.0381 83.8199 27.1149H84.2485V13.5284H92.2969V48.8248H84.5819L84.3914 46.022H83.9151C83.3754 47.2254 82.6134 48.0647 81.6292 48.5397C80.645 48.9831 79.4861 49.2048 78.1527 49.2048ZM81.8197 42.6016C82.5182 42.6016 83.0103 42.5224 83.296 42.3641C83.6135 42.1741 83.8358 41.7782 83.9628 41.1764C84.1533 40.353 84.2485 38.8645 84.2485 36.711C84.2485 34.7474 84.185 33.3698 84.058 32.578C83.931 31.8496 83.7088 31.3745 83.3913 31.1529C83.0738 30.9312 82.5499 30.8203 81.8197 30.8203C80.9625 30.8203 80.3751 30.9312 80.0576 31.1529C79.7719 31.3429 79.5814 31.8179 79.4861 32.578C79.3909 33.3064 79.3433 34.6841 79.3433 36.711C79.3433 38.7378 79.3909 40.1313 79.4861 40.8914C79.5814 41.6198 79.7719 42.0949 80.0576 42.3166C80.3751 42.5066 80.9625 42.6016 81.8197 42.6016ZM108.131 49.2048C104.067 49.2048 101.162 48.7298 99.416 47.7797C97.7016 46.7979 96.638 45.2461 96.2252 43.1242C95.8125 41.0023 95.6061 37.4552 95.6061 32.483C95.6061 27.5108 95.8125 23.9637 96.2252 21.8418C96.638 19.7199 97.7016 18.1839 99.416 17.2338C101.162 16.2521 104.067 15.7612 108.131 15.7612C112.195 15.7612 115.084 16.2521 116.799 17.2338C118.545 18.1839 119.624 19.7199 120.037 21.8418C120.45 23.9637 120.656 27.5108 120.656 32.483C120.656 37.4552 120.45 41.0023 120.037 43.1242C119.624 45.2461 118.545 46.7979 116.799 47.7797C115.084 48.7298 112.195 49.2048 108.131 49.2048ZM108.131 42.4116C109.465 42.4116 110.354 42.2532 110.798 41.9365C111.274 41.6198 111.576 40.8597 111.703 39.6563C111.83 38.4211 111.893 36.03 111.893 32.483C111.893 28.9359 111.83 26.5607 111.703 25.3572C111.576 24.1221 111.274 23.3462 110.798 23.0295C110.354 22.7128 109.465 22.5544 108.131 22.5544C106.798 22.5544 105.893 22.7128 105.417 23.0295C104.972 23.3462 104.686 24.1221 104.559 25.3572C104.432 26.5607 104.369 28.9359 104.369 32.483C104.369 36.03 104.432 38.4211 104.559 39.6563C104.686 40.8597 104.972 41.6198 105.417 41.9365C105.893 42.2532 106.798 42.4116 108.131 42.4116ZM139.675 48.3972C137.516 48.9356 135.277 49.2048 132.96 49.2048C130.039 49.2048 127.88 48.7456 126.483 47.8272C125.118 46.8771 124.245 45.5628 123.864 43.8842C123.483 42.2057 123.292 39.8146 123.292 36.711C123.292 33.639 123.483 31.2637 123.864 29.5852C124.276 27.875 125.165 26.5607 126.531 25.6423C127.927 24.6922 130.071 24.2171 132.96 24.2171C135.309 24.2171 137.5 24.4705 139.532 24.9772V30.5828C138.008 30.3928 136.563 30.2978 135.198 30.2978C133.992 30.2978 133.134 30.4403 132.626 30.7253C132.15 31.0103 131.833 31.5804 131.674 32.4355C131.515 33.2589 131.436 34.6841 131.436 36.711C131.436 38.7695 131.515 40.2263 131.674 41.0814C131.833 41.9049 132.15 42.4591 132.626 42.7441C133.134 42.9975 134.007 43.1242 135.246 43.1242C136.833 43.1242 138.309 43.0291 139.675 42.8391V48.3972ZM162.115 38.6112H149.733C149.733 40.163 149.829 41.2239 150.019 41.794C150.209 42.3641 150.622 42.7283 151.257 42.8866C151.892 43.045 153.083 43.1242 154.829 43.1242C156.067 43.1242 158.242 43.0291 161.353 42.8391V48.3972C160.464 48.6189 159.226 48.8089 157.639 48.9673C156.051 49.1256 154.48 49.2048 152.924 49.2048C149.463 49.2048 146.939 48.7931 145.352 47.9697C143.796 47.1463 142.812 45.927 142.399 44.3118C141.986 42.6649 141.78 40.1472 141.78 36.7585C141.78 33.4014 141.986 30.8995 142.399 29.2526C142.812 27.5741 143.749 26.3232 145.209 25.4997C146.669 24.6446 149.003 24.2171 152.21 24.2171C155.416 24.2171 157.702 24.613 159.068 25.4047C160.464 26.1648 161.322 27.3366 161.639 28.9201C161.957 30.5036 162.115 33.1164 162.115 36.7585V38.6112ZM152.21 29.9177C151.448 29.9177 150.892 30.0127 150.543 30.2028C150.225 30.3928 150.003 30.8045 149.876 31.4379C149.781 32.0396 149.733 33.0689 149.733 34.5257H154.638C154.638 33.0372 154.575 31.9921 154.448 31.3904C154.353 30.757 154.146 30.3611 153.829 30.2028C153.511 30.0127 152.972 29.9177 152.21 29.9177ZM170.359 49.2048C168.232 49.2048 166.676 48.6189 165.692 47.4471C164.708 46.2437 164.216 44.3751 164.216 41.8415C164.216 39.9413 164.422 38.4687 164.835 37.4235C165.247 36.3784 165.962 35.6183 166.978 35.1433C167.994 34.6682 169.438 34.4307 171.311 34.4307C172.581 34.4307 174.328 34.4941 176.55 34.6207V33.6706C176.55 32.5622 176.439 31.7863 176.217 31.3429C175.994 30.8995 175.582 30.6145 174.979 30.4878C174.375 30.3611 173.296 30.2978 171.74 30.2978C169.899 30.2978 167.803 30.3928 165.454 30.5828V24.9772C168.375 24.4705 171.296 24.2171 174.217 24.2171C177.264 24.2171 179.519 24.5655 180.979 25.2622C182.471 25.9273 183.44 26.9566 183.884 28.35C184.36 29.7119 184.599 31.6754 184.599 34.2407V48.8248H176.836L176.645 46.0695H176.217C175.55 47.2729 174.725 48.0964 173.74 48.5397C172.756 48.9831 171.629 49.2048 170.359 49.2048ZM174.026 43.3617C174.598 43.3617 175.042 43.2983 175.36 43.1717C175.709 43.0133 175.979 42.7599 176.169 42.4116C176.423 41.9365 176.55 41.0498 176.55 39.7513V38.5637H173.931C173.296 38.5637 172.82 38.627 172.502 38.7537C172.216 38.8487 172.026 39.0704 171.931 39.4187C171.835 39.7671 171.788 40.3214 171.788 41.0814C171.788 41.9999 171.915 42.6174 172.169 42.9341C172.423 43.2192 173.042 43.3617 174.026 43.3617ZM200.597 35.9034C200.597 34.1615 200.55 32.9739 200.455 32.3405C200.391 31.7071 200.217 31.3112 199.931 31.1529C199.677 30.9628 199.169 30.8678 198.407 30.8678C197.645 30.8678 197.105 30.9945 196.788 31.2479C196.502 31.4696 196.311 31.9288 196.216 32.6255C196.153 33.2906 196.121 34.4941 196.121 36.2359V48.8248H188.072V24.5971H195.787L195.978 27.3999H196.359C197.47 25.2781 199.47 24.2171 202.36 24.2171C204.138 24.2171 205.471 24.5496 206.36 25.2147C207.281 25.8798 207.884 26.8457 208.17 28.1125C208.487 29.3477 208.646 31.0737 208.646 33.2906V48.8248H200.597V35.9034Z" fill="#048CBF"/>
</svg>
