<svg width="102" height="112" viewBox="0 0 102 112" fill="none" xmlns="http://www.w3.org/2000/svg">
<path d="M9.88476 2.96542C14.6624 11.5322 14.3878 17.3532 8.51188 29.2699C2.52611 41.3512 2.58102 40.9668 7.5234 35.3655C18.836 22.4055 35.695 15.3763 53.3228 16.2549C71.7744 17.1885 85.3384 26.1397 85.4483 37.5621C85.5581 43.8224 82.5378 44.4814 72.8727 40.4726C52.6638 32.0156 49.1492 30.9723 39.6489 30.5329C30.9723 30.2034 26.4143 31.0821 19.5499 34.4868C10.8183 38.7702 4.55797 45.6347 1.37288 54.4211C0.219661 57.4414 0 59.0889 0 63.592C0.0549153 81.3845 13.2346 100.001 30.9723 107.305C41.6807 111.698 53.7072 112.576 64.6354 109.611C67.7106 108.787 78.0896 104.284 78.0896 103.79C78.0896 103.68 76.0577 104.174 73.5866 104.943C67.3811 106.755 55.8489 107.25 48.7648 105.932C38.5506 104.01 29.6543 99.5066 24.1628 93.5757C17.9573 86.8761 18.0122 80.0117 24.4373 73.8611L26.3594 71.994L27.5126 73.6964C29.0502 75.8381 34.4868 78.474 39.6489 79.5723C48.8747 81.5493 59.9676 79.5723 60.4069 75.893C60.5716 74.3005 59.3635 73.0923 53.4875 68.8638C46.8977 64.1411 42.3946 57.2767 42.0102 51.236C41.516 44.2618 45.4699 40.2529 52.8286 40.2529C59.5831 40.2529 65.6238 42.834 77.3757 50.7418C86.931 57.1669 91.3242 59.4733 94.07 59.4733C97.9141 59.4733 100.989 57.0021 101.923 53.3228C102.362 51.4557 100.989 45.1953 99.1222 40.6374C95.7724 32.2902 89.2923 23.7783 82.3181 18.5065C72.3235 10.9282 57.8259 6.91933 45.6896 8.40205C43.1085 8.73154 39.8685 9.11594 38.4407 9.33561C36.0794 9.61018 35.5851 9.44543 32.9492 7.57832C27.4028 3.5695 21.0875 1.4278 11.7519 0.384407L8.2373 0L9.88476 2.96542Z" fill="#048CBF"/>
<path d="M99.6165 72.4333C98.628 73.2571 95.6626 74.7398 93.0816 75.7283C87.7548 77.815 86.4917 78.7486 85.4483 81.2747C84.6795 83.032 84.6795 83.032 82.9771 82.1534C81.6043 81.4395 80.506 81.3845 77.3209 81.7689C75.1792 82.0435 71.4998 82.2632 69.1385 82.2632C65.8436 82.2632 64.9649 82.4279 65.1846 82.9771C65.3493 83.4164 65.4591 83.9656 65.4591 84.1852C65.4591 85.009 68.809 88.5784 70.3466 89.4022C71.1154 89.7866 73.0375 90.2808 74.5202 90.5005C78.1995 91.0496 81.7141 92.5873 82.4829 94.07C83.1419 95.333 83.0321 98.4632 82.2083 100.385C81.4395 102.143 87.2056 97.0354 90.6104 92.9717C93.9602 88.9629 97.31 83.4713 98.8477 79.4625C99.8911 76.8266 101.758 71.0055 101.539 71.0055C101.484 71.0055 100.605 71.6645 99.6165 72.4333Z" fill="#048CBF"/>
</svg>
